G04 EAGLE Gerber RS-274X export*
G75*
%MOMM*%
%FSLAX34Y34*%
%LPD*%
%INBottom Copper*%
%IPPOS*%
%AMOC8*
5,1,8,0,0,1.08239X$1,22.5*%
G01*
%ADD10C,1.778000*%
%ADD11C,1.524000*%
%ADD12P,1.649562X8X112.500000*%
%ADD13C,1.524000*%
%ADD14C,0.756400*%
%ADD15C,0.254000*%
%ADD16C,0.508000*%
%ADD17C,0.254000*%
%ADD18C,1.270000*%

G36*
X802656Y393705D02*
X802656Y393705D01*
X802677Y393703D01*
X804546Y393887D01*
X804583Y393899D01*
X804654Y393914D01*
X808107Y395344D01*
X808109Y395345D01*
X808111Y395345D01*
X808231Y395426D01*
X810874Y398069D01*
X810875Y398071D01*
X810876Y398072D01*
X810956Y398193D01*
X812386Y401646D01*
X812393Y401684D01*
X812413Y401754D01*
X812597Y403623D01*
X812595Y403639D01*
X812599Y403660D01*
X812599Y639175D01*
X812585Y639237D01*
X812578Y639301D01*
X812565Y639324D01*
X812560Y639344D01*
X812536Y639373D01*
X812535Y639374D01*
X812598Y640345D01*
X812597Y640356D01*
X812599Y640370D01*
X812599Y640654D01*
X812598Y640660D01*
X812599Y640667D01*
X812548Y642213D01*
X812538Y642250D01*
X812528Y642323D01*
X811417Y645595D01*
X811416Y645596D01*
X811416Y645598D01*
X811343Y645723D01*
X809064Y648321D01*
X809063Y648322D01*
X809062Y648323D01*
X808946Y648411D01*
X805847Y649939D01*
X805809Y649948D01*
X805741Y649973D01*
X804065Y650249D01*
X804039Y650247D01*
X804004Y650254D01*
X586525Y650245D01*
X586500Y650240D01*
X586474Y650242D01*
X586416Y650220D01*
X586356Y650206D01*
X586336Y650190D01*
X586312Y650180D01*
X586270Y650135D01*
X586223Y650096D01*
X586212Y650072D01*
X586194Y650053D01*
X586177Y649994D01*
X586152Y649938D01*
X586153Y649912D01*
X586145Y649887D01*
X586156Y649826D01*
X586158Y649764D01*
X586171Y649742D01*
X586175Y649716D01*
X586223Y649645D01*
X586241Y649612D01*
X586249Y649606D01*
X586256Y649596D01*
X587106Y648746D01*
X591544Y644308D01*
X591598Y644275D01*
X591647Y644235D01*
X591671Y644230D01*
X591691Y644217D01*
X591755Y644211D01*
X591816Y644197D01*
X591843Y644202D01*
X591864Y644200D01*
X591899Y644214D01*
X591958Y644226D01*
X594828Y645415D01*
X598972Y645415D01*
X602799Y643829D01*
X605729Y640899D01*
X607315Y637072D01*
X607315Y632928D01*
X605729Y629101D01*
X602799Y626171D01*
X598972Y624585D01*
X594828Y624585D01*
X591001Y626171D01*
X588071Y629101D01*
X586485Y632928D01*
X586485Y637072D01*
X587674Y639942D01*
X587684Y640004D01*
X587702Y640065D01*
X587698Y640089D01*
X587702Y640113D01*
X587684Y640173D01*
X587673Y640236D01*
X587658Y640258D01*
X587651Y640278D01*
X587626Y640306D01*
X587592Y640356D01*
X583154Y644794D01*
X583089Y644834D01*
X583027Y644878D01*
X583015Y644880D01*
X583007Y644885D01*
X582970Y644889D01*
X582885Y644905D01*
X576713Y644905D01*
X576701Y644902D01*
X576688Y644904D01*
X576617Y644883D01*
X576544Y644866D01*
X576534Y644858D01*
X576522Y644854D01*
X576468Y644803D01*
X576411Y644756D01*
X576406Y644744D01*
X576396Y644735D01*
X576370Y644665D01*
X576340Y644597D01*
X576340Y644584D01*
X576336Y644572D01*
X576344Y644499D01*
X576347Y644424D01*
X576353Y644413D01*
X576354Y644400D01*
X576394Y644337D01*
X576429Y644272D01*
X576440Y644265D01*
X576447Y644254D01*
X576568Y644174D01*
X577399Y643829D01*
X580329Y640899D01*
X581915Y637072D01*
X581915Y632928D01*
X580329Y629101D01*
X577399Y626171D01*
X574529Y624982D01*
X574478Y624945D01*
X574422Y624915D01*
X574408Y624895D01*
X574389Y624881D01*
X574359Y624825D01*
X574322Y624773D01*
X574317Y624747D01*
X574307Y624728D01*
X574306Y624690D01*
X574295Y624631D01*
X574295Y621142D01*
X528686Y575534D01*
X528646Y575469D01*
X528602Y575407D01*
X528600Y575395D01*
X528595Y575387D01*
X528591Y575350D01*
X528575Y575265D01*
X528575Y527162D01*
X526826Y525414D01*
X517888Y516476D01*
X517868Y516443D01*
X517840Y516417D01*
X517823Y516370D01*
X517797Y516329D01*
X517793Y516290D01*
X517780Y516254D01*
X517785Y516205D01*
X517780Y516156D01*
X517794Y516120D01*
X517798Y516082D01*
X517824Y516040D01*
X517842Y515994D01*
X517870Y515968D01*
X517891Y515935D01*
X517941Y515902D01*
X517969Y515876D01*
X517989Y515870D01*
X518011Y515856D01*
X518260Y515753D01*
X520833Y513180D01*
X522225Y509819D01*
X522225Y506661D01*
X522242Y506587D01*
X522255Y506512D01*
X522262Y506502D01*
X522264Y506492D01*
X522288Y506464D01*
X522336Y506392D01*
X553382Y475346D01*
X553447Y475306D01*
X553509Y475262D01*
X553521Y475260D01*
X553530Y475255D01*
X553567Y475251D01*
X553651Y475235D01*
X705241Y475235D01*
X705315Y475252D01*
X705389Y475265D01*
X705400Y475272D01*
X705409Y475274D01*
X705438Y475298D01*
X705510Y475346D01*
X719439Y489276D01*
X722334Y490475D01*
X725466Y490475D01*
X728361Y489276D01*
X730576Y487061D01*
X731775Y484166D01*
X731775Y481034D01*
X730576Y478139D01*
X713121Y460684D01*
X710226Y459485D01*
X548665Y459485D01*
X545771Y460684D01*
X522874Y483581D01*
X522852Y483595D01*
X522836Y483615D01*
X522779Y483640D01*
X522727Y483673D01*
X522701Y483675D01*
X522677Y483686D01*
X522616Y483684D01*
X522554Y483689D01*
X522530Y483680D01*
X522504Y483679D01*
X522450Y483650D01*
X522392Y483628D01*
X522375Y483609D01*
X522352Y483597D01*
X522317Y483546D01*
X522275Y483501D01*
X522267Y483476D01*
X522252Y483455D01*
X522236Y483370D01*
X522225Y483335D01*
X522227Y483325D01*
X522225Y483313D01*
X522225Y480781D01*
X520833Y477420D01*
X518260Y474847D01*
X514899Y473455D01*
X496021Y473455D01*
X492660Y474847D01*
X490087Y477420D01*
X488695Y480781D01*
X488695Y484419D01*
X490087Y487780D01*
X492660Y490353D01*
X496021Y491745D01*
X513793Y491745D01*
X513818Y491751D01*
X513843Y491748D01*
X513901Y491770D01*
X513961Y491784D01*
X513981Y491801D01*
X514005Y491810D01*
X514047Y491855D01*
X514095Y491894D01*
X514106Y491918D01*
X514123Y491937D01*
X514141Y491996D01*
X514166Y492053D01*
X514165Y492078D01*
X514172Y492103D01*
X514162Y492164D01*
X514159Y492226D01*
X514147Y492248D01*
X514143Y492274D01*
X514094Y492345D01*
X514077Y492378D01*
X514068Y492384D01*
X514061Y492394D01*
X507711Y498744D01*
X507647Y498784D01*
X507585Y498828D01*
X507573Y498830D01*
X507564Y498835D01*
X507527Y498839D01*
X507443Y498855D01*
X496021Y498855D01*
X493025Y500096D01*
X493023Y500097D01*
X493022Y500098D01*
X492879Y500125D01*
X483479Y500125D01*
X483405Y500108D01*
X483331Y500095D01*
X483320Y500088D01*
X483311Y500086D01*
X483282Y500062D01*
X483210Y500014D01*
X448907Y465711D01*
X443609Y460413D01*
X441341Y458144D01*
X438446Y456945D01*
X432774Y456945D01*
X429879Y458144D01*
X427664Y460359D01*
X426465Y463254D01*
X426465Y466386D01*
X427664Y469281D01*
X429879Y471496D01*
X432774Y472695D01*
X433461Y472695D01*
X433535Y472712D01*
X433609Y472725D01*
X433620Y472732D01*
X433629Y472734D01*
X433658Y472758D01*
X433730Y472806D01*
X437771Y476847D01*
X475599Y514676D01*
X478494Y515875D01*
X492879Y515875D01*
X492881Y515875D01*
X492883Y515875D01*
X493025Y515904D01*
X496021Y517145D01*
X510495Y517145D01*
X510569Y517162D01*
X510644Y517175D01*
X510654Y517182D01*
X510664Y517184D01*
X510692Y517208D01*
X510764Y517256D01*
X518436Y524929D01*
X518443Y524940D01*
X518454Y524947D01*
X518489Y525013D01*
X518528Y525076D01*
X518529Y525089D01*
X518535Y525100D01*
X518537Y525174D01*
X518544Y525248D01*
X518540Y525260D01*
X518540Y525273D01*
X518509Y525341D01*
X518483Y525410D01*
X518473Y525419D01*
X518468Y525431D01*
X518410Y525478D01*
X518356Y525528D01*
X518343Y525532D01*
X518333Y525540D01*
X518261Y525556D01*
X518189Y525577D01*
X518177Y525575D01*
X518164Y525578D01*
X518022Y525549D01*
X514899Y524255D01*
X496021Y524255D01*
X492660Y525647D01*
X490087Y528220D01*
X488695Y531581D01*
X488695Y535219D01*
X490087Y538580D01*
X492660Y541153D01*
X496021Y542545D01*
X514899Y542545D01*
X518260Y541153D01*
X520833Y538580D01*
X522225Y535219D01*
X522225Y531581D01*
X520931Y528458D01*
X520929Y528445D01*
X520922Y528434D01*
X520915Y528361D01*
X520903Y528287D01*
X520907Y528275D01*
X520906Y528262D01*
X520932Y528192D01*
X520954Y528121D01*
X520963Y528112D01*
X520967Y528100D01*
X521022Y528049D01*
X521073Y527995D01*
X521085Y527991D01*
X521094Y527982D01*
X521166Y527961D01*
X521235Y527935D01*
X521248Y527937D01*
X521261Y527933D01*
X521334Y527946D01*
X521407Y527953D01*
X521418Y527960D01*
X521431Y527963D01*
X521551Y528044D01*
X522874Y529366D01*
X522914Y529431D01*
X522958Y529493D01*
X522960Y529505D01*
X522965Y529513D01*
X522969Y529550D01*
X522985Y529635D01*
X522985Y577738D01*
X568594Y623346D01*
X568634Y623411D01*
X568678Y623473D01*
X568680Y623485D01*
X568685Y623493D01*
X568689Y623530D01*
X568705Y623615D01*
X568705Y624631D01*
X568691Y624693D01*
X568684Y624756D01*
X568671Y624776D01*
X568666Y624799D01*
X568625Y624849D01*
X568591Y624902D01*
X568569Y624917D01*
X568556Y624933D01*
X568521Y624949D01*
X568471Y624982D01*
X565601Y626171D01*
X562671Y629101D01*
X561310Y632385D01*
X561303Y632396D01*
X561300Y632408D01*
X561253Y632466D01*
X561209Y632526D01*
X561198Y632532D01*
X561190Y632542D01*
X561122Y632572D01*
X561056Y632607D01*
X561043Y632608D01*
X561031Y632613D01*
X560957Y632610D01*
X560883Y632612D01*
X560871Y632607D01*
X560858Y632606D01*
X560793Y632571D01*
X560726Y632540D01*
X560717Y632530D01*
X560706Y632524D01*
X560663Y632463D01*
X560617Y632405D01*
X560614Y632393D01*
X560606Y632382D01*
X560579Y632240D01*
X560579Y620126D01*
X536306Y595854D01*
X534558Y594105D01*
X494075Y594105D01*
X494001Y594088D01*
X493926Y594075D01*
X493916Y594068D01*
X493906Y594066D01*
X493878Y594042D01*
X493806Y593994D01*
X492484Y592671D01*
X492477Y592660D01*
X492466Y592653D01*
X492431Y592587D01*
X492392Y592524D01*
X492391Y592511D01*
X492385Y592500D01*
X492383Y592426D01*
X492376Y592352D01*
X492380Y592340D01*
X492380Y592327D01*
X492411Y592259D01*
X492437Y592190D01*
X492447Y592181D01*
X492452Y592169D01*
X492510Y592122D01*
X492565Y592072D01*
X492577Y592068D01*
X492587Y592060D01*
X492659Y592044D01*
X492731Y592023D01*
X492744Y592025D01*
X492756Y592022D01*
X492898Y592051D01*
X496021Y593345D01*
X514899Y593345D01*
X518260Y591953D01*
X520833Y589380D01*
X522225Y586019D01*
X522225Y582381D01*
X520833Y579020D01*
X518260Y576447D01*
X514899Y575055D01*
X496021Y575055D01*
X492660Y576447D01*
X490087Y579020D01*
X488695Y582381D01*
X488695Y586019D01*
X489989Y589142D01*
X489991Y589155D01*
X489998Y589166D01*
X490005Y589239D01*
X490017Y589313D01*
X490013Y589325D01*
X490014Y589338D01*
X489988Y589408D01*
X489966Y589479D01*
X489957Y589488D01*
X489953Y589500D01*
X489898Y589551D01*
X489847Y589605D01*
X489835Y589609D01*
X489826Y589618D01*
X489754Y589639D01*
X489685Y589665D01*
X489672Y589663D01*
X489659Y589667D01*
X489586Y589654D01*
X489513Y589647D01*
X489502Y589640D01*
X489489Y589637D01*
X489369Y589556D01*
X457566Y557754D01*
X457526Y557689D01*
X457482Y557627D01*
X457480Y557615D01*
X457475Y557607D01*
X457471Y557570D01*
X457455Y557485D01*
X457455Y517002D01*
X420258Y479805D01*
X396028Y479805D01*
X395954Y479788D01*
X395879Y479775D01*
X395869Y479768D01*
X395859Y479766D01*
X395830Y479742D01*
X395759Y479694D01*
X393358Y477293D01*
X388962Y477293D01*
X385853Y480402D01*
X385853Y484798D01*
X388962Y487907D01*
X393358Y487907D01*
X395759Y485506D01*
X395823Y485466D01*
X395885Y485422D01*
X395897Y485420D01*
X395906Y485415D01*
X395943Y485411D01*
X396028Y485395D01*
X417785Y485395D01*
X417859Y485412D01*
X417934Y485425D01*
X417944Y485432D01*
X417954Y485434D01*
X417982Y485458D01*
X418054Y485506D01*
X451754Y519206D01*
X451794Y519271D01*
X451838Y519333D01*
X451840Y519345D01*
X451845Y519353D01*
X451849Y519390D01*
X451865Y519475D01*
X451865Y559958D01*
X491602Y599695D01*
X532085Y599695D01*
X532159Y599712D01*
X532234Y599725D01*
X532244Y599732D01*
X532254Y599734D01*
X532282Y599758D01*
X532354Y599806D01*
X554878Y622330D01*
X554907Y622377D01*
X554911Y622381D01*
X554917Y622394D01*
X554918Y622395D01*
X554962Y622457D01*
X554964Y622469D01*
X554969Y622477D01*
X554973Y622514D01*
X554974Y622520D01*
X554982Y622539D01*
X554982Y622559D01*
X554989Y622599D01*
X554989Y628243D01*
X554983Y628268D01*
X554986Y628293D01*
X554964Y628351D01*
X554950Y628411D01*
X554933Y628431D01*
X554924Y628455D01*
X554879Y628497D01*
X554840Y628545D01*
X554816Y628556D01*
X554797Y628573D01*
X554738Y628591D01*
X554681Y628616D01*
X554656Y628615D01*
X554631Y628622D01*
X554570Y628612D01*
X554508Y628609D01*
X554486Y628597D01*
X554460Y628593D01*
X554389Y628544D01*
X554356Y628527D01*
X554350Y628518D01*
X554340Y628512D01*
X551999Y626171D01*
X548172Y624585D01*
X544028Y624585D01*
X540201Y626171D01*
X537267Y629105D01*
X537250Y629128D01*
X537236Y629164D01*
X537200Y629197D01*
X537172Y629237D01*
X537138Y629255D01*
X537109Y629282D01*
X537062Y629295D01*
X537019Y629319D01*
X536980Y629320D01*
X536943Y629331D01*
X536895Y629322D01*
X536845Y629324D01*
X536810Y629308D01*
X536772Y629301D01*
X536722Y629267D01*
X536688Y629251D01*
X536675Y629235D01*
X536652Y629220D01*
X524652Y617219D01*
X507541Y617219D01*
X507467Y617202D01*
X507393Y617189D01*
X507383Y617182D01*
X507373Y617180D01*
X507344Y617156D01*
X507273Y617108D01*
X444866Y554701D01*
X444826Y554637D01*
X444782Y554575D01*
X444780Y554563D01*
X444775Y554554D01*
X444771Y554517D01*
X444755Y554433D01*
X444755Y543348D01*
X444772Y543274D01*
X444785Y543199D01*
X444792Y543189D01*
X444794Y543179D01*
X444818Y543150D01*
X444866Y543079D01*
X447267Y540678D01*
X447267Y536282D01*
X444158Y533173D01*
X439762Y533173D01*
X436653Y536282D01*
X436653Y540678D01*
X439054Y543079D01*
X439094Y543143D01*
X439138Y543205D01*
X439140Y543217D01*
X439145Y543226D01*
X439149Y543263D01*
X439165Y543348D01*
X439165Y556905D01*
X440914Y558654D01*
X475716Y593456D01*
X475727Y593473D01*
X475737Y593482D01*
X475738Y593485D01*
X475750Y593494D01*
X475775Y593551D01*
X475808Y593603D01*
X475810Y593629D01*
X475821Y593653D01*
X475818Y593714D01*
X475824Y593776D01*
X475815Y593800D01*
X475814Y593826D01*
X475784Y593880D01*
X475762Y593938D01*
X475744Y593955D01*
X475731Y593978D01*
X475681Y594013D01*
X475635Y594055D01*
X475611Y594063D01*
X475590Y594078D01*
X475505Y594094D01*
X475469Y594105D01*
X475459Y594103D01*
X475447Y594105D01*
X417875Y594105D01*
X417801Y594088D01*
X417726Y594075D01*
X417716Y594068D01*
X417706Y594066D01*
X417678Y594042D01*
X417606Y593994D01*
X396578Y572966D01*
X396538Y572901D01*
X396494Y572839D01*
X396492Y572827D01*
X396487Y572819D01*
X396483Y572782D01*
X396467Y572697D01*
X396467Y569302D01*
X393358Y566193D01*
X388962Y566193D01*
X385853Y569302D01*
X385853Y570470D01*
X385847Y570496D01*
X385850Y570521D01*
X385828Y570579D01*
X385814Y570639D01*
X385797Y570659D01*
X385788Y570683D01*
X385743Y570725D01*
X385704Y570773D01*
X385680Y570783D01*
X385661Y570801D01*
X385602Y570818D01*
X385545Y570844D01*
X385520Y570843D01*
X385495Y570850D01*
X385434Y570839D01*
X385372Y570837D01*
X385350Y570825D01*
X385324Y570820D01*
X385253Y570772D01*
X385220Y570754D01*
X385214Y570746D01*
X385204Y570739D01*
X383198Y568733D01*
X378802Y568733D01*
X375693Y571842D01*
X375693Y576238D01*
X378802Y579347D01*
X379970Y579347D01*
X379996Y579353D01*
X380021Y579350D01*
X380079Y579372D01*
X380139Y579386D01*
X380159Y579403D01*
X380183Y579412D01*
X380225Y579457D01*
X380273Y579496D01*
X380283Y579520D01*
X380301Y579539D01*
X380318Y579598D01*
X380344Y579655D01*
X380343Y579680D01*
X380350Y579705D01*
X380339Y579766D01*
X380337Y579828D01*
X380325Y579850D01*
X380320Y579876D01*
X380272Y579947D01*
X380254Y579980D01*
X380246Y579986D01*
X380239Y579996D01*
X378233Y582002D01*
X378233Y586398D01*
X380846Y589011D01*
X380873Y589054D01*
X380908Y589092D01*
X380918Y589127D01*
X380938Y589158D01*
X380943Y589209D01*
X380957Y589258D01*
X380951Y589294D01*
X380954Y589331D01*
X380936Y589379D01*
X380927Y589429D01*
X380903Y589464D01*
X380893Y589493D01*
X380870Y589514D01*
X380846Y589549D01*
X378157Y592238D01*
X378157Y594267D01*
X378151Y594292D01*
X378154Y594318D01*
X378132Y594375D01*
X378118Y594435D01*
X378101Y594455D01*
X378092Y594479D01*
X378047Y594521D01*
X378007Y594569D01*
X377984Y594580D01*
X377965Y594597D01*
X377906Y594615D01*
X377849Y594640D01*
X377824Y594639D01*
X377799Y594646D01*
X377738Y594636D01*
X377676Y594633D01*
X377653Y594621D01*
X377628Y594617D01*
X377557Y594568D01*
X377524Y594551D01*
X377518Y594543D01*
X377508Y594536D01*
X363558Y580586D01*
X363518Y580521D01*
X363474Y580459D01*
X363472Y580447D01*
X363467Y580439D01*
X363463Y580402D01*
X363447Y580317D01*
X363447Y576922D01*
X360338Y573813D01*
X355942Y573813D01*
X353329Y576426D01*
X353286Y576453D01*
X353248Y576488D01*
X353213Y576498D01*
X353182Y576518D01*
X353131Y576523D01*
X353082Y576537D01*
X353046Y576531D01*
X353009Y576534D01*
X352962Y576516D01*
X352911Y576507D01*
X352876Y576483D01*
X352847Y576473D01*
X352826Y576450D01*
X352791Y576426D01*
X350178Y573813D01*
X345782Y573813D01*
X343804Y575791D01*
X343782Y575805D01*
X343766Y575825D01*
X343709Y575850D01*
X343657Y575883D01*
X343631Y575885D01*
X343607Y575896D01*
X343546Y575893D01*
X343484Y575899D01*
X343460Y575890D01*
X343434Y575889D01*
X343380Y575860D01*
X343322Y575838D01*
X343305Y575819D01*
X343282Y575806D01*
X343247Y575756D01*
X343205Y575711D01*
X343197Y575686D01*
X343182Y575665D01*
X343166Y575580D01*
X343155Y575544D01*
X343157Y575534D01*
X343155Y575522D01*
X343155Y539538D01*
X343161Y539512D01*
X343158Y539487D01*
X343180Y539429D01*
X343194Y539369D01*
X343211Y539349D01*
X343220Y539325D01*
X343265Y539283D01*
X343304Y539235D01*
X343328Y539225D01*
X343347Y539207D01*
X343406Y539190D01*
X343463Y539164D01*
X343488Y539165D01*
X343513Y539158D01*
X343574Y539169D01*
X343636Y539171D01*
X343658Y539183D01*
X343684Y539188D01*
X343755Y539236D01*
X343788Y539254D01*
X343794Y539262D01*
X343804Y539269D01*
X345782Y541247D01*
X349177Y541247D01*
X349251Y541264D01*
X349326Y541277D01*
X349336Y541284D01*
X349346Y541286D01*
X349374Y541310D01*
X349446Y541358D01*
X364602Y556515D01*
X398992Y556515D01*
X399066Y556532D01*
X399141Y556545D01*
X399151Y556552D01*
X399161Y556554D01*
X399190Y556578D01*
X399261Y556626D01*
X401166Y558531D01*
X401193Y558574D01*
X401228Y558612D01*
X401238Y558647D01*
X401258Y558678D01*
X401263Y558729D01*
X401277Y558778D01*
X401271Y558814D01*
X401274Y558851D01*
X401256Y558898D01*
X401247Y558949D01*
X401223Y558984D01*
X401213Y559013D01*
X401190Y559034D01*
X401166Y559069D01*
X398553Y561682D01*
X398553Y566078D01*
X401662Y569187D01*
X406058Y569187D01*
X407189Y568056D01*
X407253Y568016D01*
X407315Y567972D01*
X407327Y567970D01*
X407336Y567965D01*
X407373Y567961D01*
X407458Y567945D01*
X418244Y567945D01*
X425705Y560484D01*
X425705Y534256D01*
X418450Y527002D01*
X418132Y526684D01*
X418119Y526662D01*
X418099Y526646D01*
X418073Y526589D01*
X418041Y526537D01*
X418038Y526511D01*
X418028Y526487D01*
X418030Y526426D01*
X418024Y526364D01*
X418033Y526340D01*
X418034Y526314D01*
X418064Y526260D01*
X418086Y526202D01*
X418105Y526185D01*
X418117Y526162D01*
X418168Y526127D01*
X418213Y526085D01*
X418238Y526077D01*
X418259Y526062D01*
X418343Y526046D01*
X418379Y526035D01*
X418389Y526037D01*
X418401Y526035D01*
X434552Y526035D01*
X434626Y526052D01*
X434701Y526065D01*
X434711Y526072D01*
X434721Y526074D01*
X434750Y526098D01*
X434821Y526146D01*
X437222Y528547D01*
X441618Y528547D01*
X444727Y525438D01*
X444727Y521042D01*
X441618Y517933D01*
X437222Y517933D01*
X434821Y520334D01*
X434757Y520374D01*
X434695Y520418D01*
X434683Y520420D01*
X434674Y520425D01*
X434637Y520429D01*
X434552Y520445D01*
X355388Y520445D01*
X355314Y520428D01*
X355239Y520415D01*
X355229Y520408D01*
X355219Y520406D01*
X355190Y520382D01*
X355119Y520334D01*
X352718Y517933D01*
X348322Y517933D01*
X345213Y521042D01*
X345213Y525438D01*
X348322Y528547D01*
X352718Y528547D01*
X355119Y526146D01*
X355183Y526106D01*
X355245Y526062D01*
X355257Y526060D01*
X355266Y526055D01*
X355303Y526051D01*
X355388Y526035D01*
X368999Y526035D01*
X369024Y526041D01*
X369050Y526038D01*
X369107Y526060D01*
X369168Y526074D01*
X369188Y526091D01*
X369212Y526100D01*
X369254Y526145D01*
X369301Y526184D01*
X369312Y526208D01*
X369329Y526227D01*
X369347Y526286D01*
X369372Y526343D01*
X369371Y526368D01*
X369379Y526393D01*
X369368Y526454D01*
X369366Y526516D01*
X369353Y526538D01*
X369349Y526564D01*
X369301Y526635D01*
X369283Y526668D01*
X369275Y526674D01*
X369268Y526684D01*
X368950Y527002D01*
X362890Y533062D01*
X362825Y533102D01*
X362763Y533146D01*
X362751Y533148D01*
X362742Y533153D01*
X362705Y533157D01*
X362621Y533173D01*
X361022Y533173D01*
X357913Y536282D01*
X357913Y540678D01*
X361022Y543787D01*
X365418Y543787D01*
X368527Y540678D01*
X368527Y539079D01*
X368544Y539005D01*
X368557Y538930D01*
X368564Y538920D01*
X368566Y538910D01*
X368590Y538882D01*
X368638Y538810D01*
X374698Y532750D01*
X374763Y532710D01*
X374825Y532666D01*
X374837Y532664D01*
X374846Y532659D01*
X374883Y532655D01*
X374967Y532639D01*
X412433Y532639D01*
X412507Y532656D01*
X412582Y532669D01*
X412592Y532676D01*
X412602Y532678D01*
X412630Y532702D01*
X412702Y532750D01*
X417464Y537512D01*
X417504Y537577D01*
X417548Y537639D01*
X417550Y537651D01*
X417555Y537660D01*
X417559Y537697D01*
X417568Y537741D01*
X417568Y537743D01*
X417568Y537745D01*
X417575Y537781D01*
X417575Y556959D01*
X417558Y557033D01*
X417545Y557108D01*
X417538Y557118D01*
X417536Y557128D01*
X417512Y557156D01*
X417464Y557228D01*
X414988Y559704D01*
X414923Y559744D01*
X414861Y559788D01*
X414849Y559790D01*
X414840Y559795D01*
X414803Y559799D01*
X414719Y559815D01*
X407458Y559815D01*
X407384Y559798D01*
X407309Y559785D01*
X407299Y559778D01*
X407289Y559776D01*
X407260Y559752D01*
X407189Y559704D01*
X406554Y559069D01*
X406527Y559026D01*
X406492Y558988D01*
X406482Y558953D01*
X406462Y558922D01*
X406457Y558871D01*
X406443Y558822D01*
X406449Y558786D01*
X406446Y558749D01*
X406464Y558701D01*
X406473Y558651D01*
X406497Y558616D01*
X406507Y558587D01*
X406530Y558566D01*
X406554Y558531D01*
X409167Y555918D01*
X409167Y551522D01*
X406058Y548413D01*
X401662Y548413D01*
X399261Y550814D01*
X399197Y550854D01*
X399135Y550898D01*
X399123Y550900D01*
X399114Y550905D01*
X399077Y550909D01*
X398992Y550925D01*
X367075Y550925D01*
X367001Y550908D01*
X366926Y550895D01*
X366916Y550888D01*
X366906Y550886D01*
X366878Y550862D01*
X366806Y550814D01*
X353398Y537406D01*
X353358Y537341D01*
X353314Y537279D01*
X353312Y537267D01*
X353307Y537259D01*
X353303Y537222D01*
X353287Y537137D01*
X353287Y533742D01*
X350178Y530633D01*
X345782Y530633D01*
X343804Y532611D01*
X343782Y532625D01*
X343766Y532645D01*
X343709Y532670D01*
X343657Y532703D01*
X343631Y532705D01*
X343607Y532716D01*
X343546Y532713D01*
X343484Y532719D01*
X343460Y532710D01*
X343434Y532709D01*
X343380Y532680D01*
X343322Y532658D01*
X343305Y532639D01*
X343282Y532626D01*
X343247Y532576D01*
X343205Y532531D01*
X343197Y532506D01*
X343182Y532485D01*
X343166Y532400D01*
X343155Y532364D01*
X343157Y532354D01*
X343155Y532342D01*
X343155Y522015D01*
X343172Y521941D01*
X343185Y521866D01*
X343192Y521856D01*
X343194Y521846D01*
X343218Y521818D01*
X343266Y521746D01*
X349026Y515986D01*
X349091Y515946D01*
X349153Y515902D01*
X349165Y515900D01*
X349173Y515895D01*
X349210Y515891D01*
X349295Y515875D01*
X365972Y515875D01*
X366046Y515892D01*
X366121Y515905D01*
X366131Y515912D01*
X366141Y515914D01*
X366170Y515938D01*
X366241Y515986D01*
X368642Y518387D01*
X373038Y518387D01*
X376147Y515278D01*
X376147Y510882D01*
X373038Y507773D01*
X368642Y507773D01*
X366241Y510174D01*
X366177Y510214D01*
X366115Y510258D01*
X366103Y510260D01*
X366094Y510265D01*
X366057Y510269D01*
X365972Y510285D01*
X346822Y510285D01*
X345074Y512034D01*
X339314Y517794D01*
X337565Y519542D01*
X337565Y532342D01*
X337559Y532368D01*
X337562Y532393D01*
X337540Y532451D01*
X337526Y532511D01*
X337509Y532531D01*
X337500Y532555D01*
X337455Y532597D01*
X337416Y532645D01*
X337392Y532655D01*
X337373Y532673D01*
X337314Y532690D01*
X337257Y532716D01*
X337232Y532715D01*
X337207Y532722D01*
X337146Y532711D01*
X337084Y532709D01*
X337062Y532697D01*
X337036Y532692D01*
X336965Y532644D01*
X336932Y532626D01*
X336926Y532618D01*
X336916Y532611D01*
X334938Y530633D01*
X330542Y530633D01*
X327433Y533742D01*
X327433Y534597D01*
X327416Y534671D01*
X327403Y534746D01*
X327396Y534756D01*
X327394Y534766D01*
X327370Y534794D01*
X327322Y534866D01*
X318966Y543222D01*
X318901Y543262D01*
X318839Y543306D01*
X318827Y543308D01*
X318819Y543313D01*
X318782Y543317D01*
X318697Y543333D01*
X315302Y543333D01*
X312193Y546442D01*
X312193Y550838D01*
X315302Y553947D01*
X319698Y553947D01*
X322807Y550838D01*
X322807Y547443D01*
X322824Y547369D01*
X322837Y547294D01*
X322844Y547284D01*
X322846Y547274D01*
X322870Y547246D01*
X322918Y547174D01*
X329425Y540667D01*
X329468Y540641D01*
X329506Y540606D01*
X329541Y540595D01*
X329572Y540576D01*
X329623Y540571D01*
X329672Y540557D01*
X329708Y540563D01*
X329745Y540560D01*
X329792Y540578D01*
X329843Y540586D01*
X329878Y540610D01*
X329906Y540621D01*
X329927Y540644D01*
X329963Y540668D01*
X330046Y540751D01*
X330073Y540795D01*
X330108Y540832D01*
X330118Y540867D01*
X330138Y540898D01*
X330143Y540949D01*
X330157Y540998D01*
X330151Y541034D01*
X330154Y541071D01*
X330136Y541119D01*
X330127Y541169D01*
X330103Y541204D01*
X330093Y541233D01*
X330070Y541254D01*
X330046Y541289D01*
X327433Y543902D01*
X327433Y548298D01*
X329834Y550699D01*
X329874Y550763D01*
X329918Y550825D01*
X329920Y550837D01*
X329925Y550846D01*
X329929Y550883D01*
X329945Y550968D01*
X329945Y625998D01*
X333592Y629644D01*
X333625Y629698D01*
X333665Y629747D01*
X333670Y629771D01*
X333683Y629791D01*
X333689Y629855D01*
X333703Y629916D01*
X333698Y629943D01*
X333700Y629964D01*
X333686Y629999D01*
X333674Y630058D01*
X332485Y632928D01*
X332485Y637072D01*
X334071Y640899D01*
X337001Y643829D01*
X340828Y645415D01*
X344972Y645415D01*
X348799Y643829D01*
X351729Y640899D01*
X353315Y637072D01*
X353315Y632928D01*
X351729Y629101D01*
X348799Y626171D01*
X344972Y624585D01*
X340828Y624585D01*
X337958Y625774D01*
X337896Y625784D01*
X337835Y625802D01*
X337811Y625798D01*
X337787Y625802D01*
X337727Y625784D01*
X337664Y625773D01*
X337642Y625758D01*
X337622Y625751D01*
X337594Y625726D01*
X337544Y625692D01*
X335646Y623794D01*
X335606Y623729D01*
X335562Y623667D01*
X335560Y623655D01*
X335555Y623647D01*
X335551Y623610D01*
X335535Y623525D01*
X335535Y550968D01*
X335552Y550894D01*
X335565Y550819D01*
X335572Y550809D01*
X335574Y550799D01*
X335598Y550770D01*
X335646Y550699D01*
X336916Y549429D01*
X336938Y549415D01*
X336954Y549395D01*
X337011Y549370D01*
X337063Y549337D01*
X337089Y549335D01*
X337113Y549324D01*
X337174Y549327D01*
X337236Y549321D01*
X337260Y549330D01*
X337286Y549331D01*
X337340Y549360D01*
X337398Y549382D01*
X337415Y549401D01*
X337438Y549414D01*
X337473Y549464D01*
X337515Y549509D01*
X337523Y549534D01*
X337538Y549555D01*
X337554Y549640D01*
X337565Y549676D01*
X337563Y549686D01*
X337565Y549698D01*
X337565Y608218D01*
X339314Y609966D01*
X358992Y629644D01*
X359025Y629698D01*
X359065Y629747D01*
X359070Y629771D01*
X359083Y629791D01*
X359089Y629854D01*
X359103Y629916D01*
X359098Y629943D01*
X359100Y629964D01*
X359086Y629999D01*
X359074Y630058D01*
X357885Y632928D01*
X357885Y637072D01*
X359471Y640899D01*
X362401Y643829D01*
X366228Y645415D01*
X370372Y645415D01*
X374199Y643829D01*
X377129Y640899D01*
X378715Y637072D01*
X378715Y632928D01*
X377129Y629101D01*
X374199Y626171D01*
X370372Y624585D01*
X366228Y624585D01*
X363358Y625774D01*
X363296Y625784D01*
X363235Y625802D01*
X363211Y625798D01*
X363187Y625802D01*
X363127Y625784D01*
X363064Y625773D01*
X363042Y625758D01*
X363022Y625751D01*
X362994Y625726D01*
X362944Y625692D01*
X343266Y606014D01*
X343226Y605949D01*
X343182Y605887D01*
X343180Y605875D01*
X343175Y605867D01*
X343171Y605830D01*
X343155Y605745D01*
X343155Y582718D01*
X343161Y582692D01*
X343158Y582667D01*
X343180Y582609D01*
X343194Y582549D01*
X343211Y582529D01*
X343220Y582505D01*
X343265Y582463D01*
X343304Y582415D01*
X343328Y582405D01*
X343347Y582387D01*
X343406Y582370D01*
X343463Y582344D01*
X343488Y582345D01*
X343513Y582338D01*
X343574Y582349D01*
X343636Y582351D01*
X343658Y582363D01*
X343684Y582368D01*
X343755Y582416D01*
X343788Y582434D01*
X343794Y582442D01*
X343804Y582449D01*
X345074Y583719D01*
X345114Y583783D01*
X345158Y583845D01*
X345160Y583857D01*
X345165Y583866D01*
X345169Y583903D01*
X345185Y583988D01*
X345185Y590438D01*
X384392Y629644D01*
X384425Y629698D01*
X384465Y629747D01*
X384470Y629771D01*
X384483Y629791D01*
X384489Y629854D01*
X384503Y629916D01*
X384498Y629943D01*
X384500Y629964D01*
X384486Y629999D01*
X384474Y630058D01*
X383285Y632928D01*
X383285Y637072D01*
X384871Y640899D01*
X387801Y643829D01*
X391628Y645415D01*
X395772Y645415D01*
X399599Y643829D01*
X402529Y640899D01*
X404115Y637072D01*
X404115Y632928D01*
X402529Y629101D01*
X399599Y626171D01*
X395772Y624585D01*
X391628Y624585D01*
X388758Y625774D01*
X388696Y625784D01*
X388635Y625802D01*
X388611Y625798D01*
X388587Y625802D01*
X388527Y625784D01*
X388464Y625773D01*
X388442Y625758D01*
X388422Y625751D01*
X388394Y625726D01*
X388344Y625692D01*
X350886Y588234D01*
X350846Y588169D01*
X350802Y588107D01*
X350800Y588095D01*
X350795Y588087D01*
X350791Y588050D01*
X350775Y587965D01*
X350775Y583988D01*
X350792Y583914D01*
X350805Y583839D01*
X350812Y583829D01*
X350814Y583819D01*
X350838Y583790D01*
X350886Y583719D01*
X352791Y581814D01*
X352834Y581787D01*
X352872Y581752D01*
X352907Y581742D01*
X352938Y581722D01*
X352989Y581717D01*
X353038Y581703D01*
X353074Y581709D01*
X353111Y581706D01*
X353159Y581724D01*
X353209Y581733D01*
X353244Y581757D01*
X353273Y581767D01*
X353294Y581790D01*
X353329Y581814D01*
X355942Y584427D01*
X359337Y584427D01*
X359411Y584444D01*
X359486Y584457D01*
X359496Y584464D01*
X359506Y584466D01*
X359534Y584490D01*
X359606Y584538D01*
X408574Y633506D01*
X408614Y633571D01*
X408658Y633633D01*
X408660Y633645D01*
X408665Y633653D01*
X408669Y633690D01*
X408685Y633775D01*
X408685Y637072D01*
X410271Y640899D01*
X413201Y643829D01*
X417028Y645415D01*
X421172Y645415D01*
X424999Y643829D01*
X427929Y640899D01*
X429515Y637072D01*
X429515Y632928D01*
X427929Y629101D01*
X424999Y626171D01*
X421172Y624585D01*
X417028Y624585D01*
X413201Y626171D01*
X411441Y627931D01*
X411397Y627958D01*
X411360Y627992D01*
X411325Y628003D01*
X411294Y628022D01*
X411243Y628027D01*
X411194Y628041D01*
X411158Y628035D01*
X411121Y628039D01*
X411073Y628020D01*
X411023Y628012D01*
X410988Y627988D01*
X410959Y627977D01*
X410938Y627954D01*
X410903Y627931D01*
X383364Y600392D01*
X383351Y600370D01*
X383331Y600354D01*
X383306Y600297D01*
X383273Y600245D01*
X383271Y600219D01*
X383260Y600196D01*
X383262Y600134D01*
X383256Y600072D01*
X383266Y600048D01*
X383267Y600022D01*
X383296Y599968D01*
X383318Y599910D01*
X383337Y599893D01*
X383349Y599870D01*
X383400Y599835D01*
X383445Y599793D01*
X383470Y599785D01*
X383491Y599771D01*
X383576Y599754D01*
X383611Y599744D01*
X383621Y599745D01*
X383633Y599743D01*
X384661Y599743D01*
X384735Y599760D01*
X384809Y599773D01*
X384820Y599780D01*
X384829Y599782D01*
X384858Y599806D01*
X384930Y599854D01*
X407630Y622555D01*
X427945Y622555D01*
X428019Y622572D01*
X428094Y622585D01*
X428104Y622592D01*
X428114Y622594D01*
X428142Y622618D01*
X428214Y622666D01*
X435192Y629644D01*
X435225Y629698D01*
X435265Y629747D01*
X435270Y629771D01*
X435283Y629791D01*
X435289Y629855D01*
X435303Y629916D01*
X435298Y629943D01*
X435300Y629964D01*
X435286Y629999D01*
X435274Y630058D01*
X434085Y632928D01*
X434085Y637072D01*
X435671Y640899D01*
X438601Y643829D01*
X442428Y645415D01*
X446572Y645415D01*
X450399Y643829D01*
X453329Y640899D01*
X454915Y637072D01*
X454915Y632928D01*
X453329Y629101D01*
X450399Y626171D01*
X446572Y624585D01*
X442428Y624585D01*
X439558Y625774D01*
X439496Y625784D01*
X439435Y625802D01*
X439411Y625798D01*
X439387Y625802D01*
X439327Y625784D01*
X439264Y625773D01*
X439242Y625758D01*
X439222Y625751D01*
X439194Y625726D01*
X439144Y625692D01*
X430418Y616965D01*
X410103Y616965D01*
X410029Y616948D01*
X409954Y616935D01*
X409944Y616928D01*
X409934Y616926D01*
X409905Y616902D01*
X409834Y616854D01*
X388882Y595902D01*
X388842Y595837D01*
X388798Y595775D01*
X388796Y595763D01*
X388791Y595755D01*
X388787Y595718D01*
X388783Y595699D01*
X388778Y595686D01*
X388778Y595672D01*
X388771Y595633D01*
X388771Y594301D01*
X388776Y594276D01*
X388774Y594250D01*
X388796Y594192D01*
X388810Y594132D01*
X388826Y594112D01*
X388836Y594088D01*
X388881Y594046D01*
X388920Y593999D01*
X388944Y593988D01*
X388963Y593970D01*
X389022Y593953D01*
X389078Y593928D01*
X389104Y593929D01*
X389129Y593921D01*
X389190Y593932D01*
X389251Y593934D01*
X389274Y593947D01*
X389300Y593951D01*
X389371Y593999D01*
X389404Y594017D01*
X389409Y594025D01*
X389420Y594032D01*
X408574Y613186D01*
X410322Y614935D01*
X445725Y614935D01*
X445799Y614952D01*
X445874Y614965D01*
X445884Y614972D01*
X445894Y614974D01*
X445922Y614998D01*
X445994Y615046D01*
X460592Y629644D01*
X460625Y629698D01*
X460665Y629747D01*
X460670Y629771D01*
X460683Y629791D01*
X460689Y629855D01*
X460703Y629916D01*
X460698Y629943D01*
X460700Y629964D01*
X460686Y629999D01*
X460674Y630058D01*
X459485Y632928D01*
X459485Y637072D01*
X461071Y640899D01*
X464001Y643829D01*
X467828Y645415D01*
X471972Y645415D01*
X475799Y643829D01*
X478729Y640899D01*
X480315Y637072D01*
X480315Y632928D01*
X478729Y629101D01*
X475799Y626171D01*
X471972Y624585D01*
X467828Y624585D01*
X464958Y625774D01*
X464896Y625784D01*
X464835Y625802D01*
X464811Y625798D01*
X464787Y625802D01*
X464727Y625784D01*
X464664Y625773D01*
X464642Y625758D01*
X464622Y625751D01*
X464594Y625726D01*
X464544Y625692D01*
X448198Y609345D01*
X412795Y609345D01*
X412721Y609328D01*
X412646Y609315D01*
X412636Y609308D01*
X412626Y609306D01*
X412598Y609282D01*
X412526Y609234D01*
X388958Y585666D01*
X388918Y585601D01*
X388874Y585539D01*
X388872Y585527D01*
X388867Y585519D01*
X388863Y585482D01*
X388847Y585397D01*
X388847Y584217D01*
X388853Y584192D01*
X388850Y584166D01*
X388872Y584109D01*
X388886Y584048D01*
X388903Y584028D01*
X388912Y584004D01*
X388957Y583962D01*
X388996Y583915D01*
X389020Y583904D01*
X389039Y583887D01*
X389098Y583869D01*
X389155Y583844D01*
X389180Y583845D01*
X389205Y583837D01*
X389266Y583848D01*
X389328Y583850D01*
X389350Y583863D01*
X389376Y583867D01*
X389447Y583915D01*
X389480Y583933D01*
X389486Y583941D01*
X389496Y583948D01*
X411114Y605566D01*
X412862Y607315D01*
X473665Y607315D01*
X473739Y607332D01*
X473814Y607345D01*
X473824Y607352D01*
X473834Y607354D01*
X473862Y607378D01*
X473934Y607426D01*
X491316Y624808D01*
X491336Y624841D01*
X491364Y624867D01*
X491381Y624914D01*
X491407Y624956D01*
X491411Y624994D01*
X491424Y625030D01*
X491419Y625079D01*
X491424Y625128D01*
X491410Y625164D01*
X491406Y625202D01*
X491380Y625244D01*
X491362Y625290D01*
X491334Y625316D01*
X491313Y625349D01*
X491263Y625382D01*
X491235Y625408D01*
X491215Y625414D01*
X491193Y625429D01*
X489401Y626171D01*
X486471Y629101D01*
X484885Y632928D01*
X484885Y637072D01*
X486471Y640899D01*
X489401Y643829D01*
X493228Y645415D01*
X497372Y645415D01*
X501199Y643829D01*
X504129Y640899D01*
X505715Y637072D01*
X505715Y632928D01*
X505498Y632405D01*
X505496Y632392D01*
X505489Y632381D01*
X505482Y632307D01*
X505470Y632234D01*
X505474Y632221D01*
X505472Y632208D01*
X505499Y632139D01*
X505520Y632068D01*
X505529Y632059D01*
X505534Y632047D01*
X505589Y631996D01*
X505639Y631942D01*
X505651Y631938D01*
X505661Y631929D01*
X505732Y631908D01*
X505802Y631882D01*
X505815Y631883D01*
X505827Y631880D01*
X505900Y631892D01*
X505974Y631900D01*
X505985Y631907D01*
X505998Y631909D01*
X506118Y631990D01*
X510174Y636046D01*
X510184Y636063D01*
X510193Y636070D01*
X510203Y636093D01*
X510214Y636111D01*
X510258Y636173D01*
X510260Y636185D01*
X510265Y636193D01*
X510269Y636230D01*
X510285Y636315D01*
X510285Y637072D01*
X511871Y640899D01*
X514801Y643829D01*
X518628Y645415D01*
X522772Y645415D01*
X526599Y643829D01*
X529529Y640899D01*
X531115Y637072D01*
X531115Y632928D01*
X530898Y632405D01*
X530896Y632392D01*
X530889Y632381D01*
X530882Y632307D01*
X530870Y632234D01*
X530874Y632221D01*
X530872Y632208D01*
X530899Y632139D01*
X530920Y632068D01*
X530929Y632059D01*
X530934Y632047D01*
X530989Y631996D01*
X531039Y631942D01*
X531051Y631938D01*
X531061Y631929D01*
X531132Y631908D01*
X531202Y631882D01*
X531215Y631883D01*
X531227Y631880D01*
X531300Y631892D01*
X531374Y631900D01*
X531385Y631907D01*
X531398Y631909D01*
X531518Y631990D01*
X535574Y636046D01*
X535584Y636063D01*
X535593Y636070D01*
X535603Y636093D01*
X535614Y636111D01*
X535658Y636173D01*
X535660Y636185D01*
X535665Y636193D01*
X535669Y636230D01*
X535685Y636315D01*
X535685Y637072D01*
X537271Y640899D01*
X540201Y643829D01*
X544028Y645415D01*
X548172Y645415D01*
X551999Y643829D01*
X554933Y640895D01*
X554950Y640872D01*
X554964Y640836D01*
X555000Y640803D01*
X555028Y640763D01*
X555062Y640745D01*
X555091Y640718D01*
X555138Y640705D01*
X555181Y640681D01*
X555220Y640680D01*
X555257Y640669D01*
X555305Y640678D01*
X555355Y640676D01*
X555390Y640692D01*
X555428Y640699D01*
X555478Y640733D01*
X555512Y640749D01*
X555525Y640765D01*
X555548Y640780D01*
X564363Y649595D01*
X564377Y649617D01*
X564397Y649634D01*
X564422Y649690D01*
X564454Y649743D01*
X564457Y649768D01*
X564467Y649792D01*
X564465Y649854D01*
X564471Y649915D01*
X564462Y649939D01*
X564461Y649965D01*
X564431Y650019D01*
X564409Y650077D01*
X564390Y650094D01*
X564378Y650117D01*
X564327Y650153D01*
X564282Y650195D01*
X564258Y650202D01*
X564236Y650217D01*
X564152Y650233D01*
X564116Y650244D01*
X564106Y650242D01*
X564094Y650244D01*
X143443Y650227D01*
X143440Y650227D01*
X142256Y650227D01*
X142232Y650227D01*
X142216Y650223D01*
X142195Y650225D01*
X140290Y650039D01*
X140253Y650026D01*
X140181Y650012D01*
X136660Y648556D01*
X136659Y648554D01*
X136657Y648554D01*
X136537Y648473D01*
X133841Y645780D01*
X133840Y645779D01*
X133839Y645778D01*
X133759Y645657D01*
X132298Y642138D01*
X132292Y642101D01*
X132281Y642076D01*
X132282Y642065D01*
X132271Y642029D01*
X132083Y640124D01*
X132085Y640108D01*
X132081Y640087D01*
X132081Y500428D01*
X132087Y500403D01*
X132084Y500377D01*
X132106Y500320D01*
X132120Y500259D01*
X132137Y500240D01*
X132146Y500215D01*
X132191Y500173D01*
X132230Y500126D01*
X132254Y500115D01*
X132273Y500098D01*
X132332Y500080D01*
X132389Y500055D01*
X132414Y500056D01*
X132439Y500049D01*
X132500Y500059D01*
X132562Y500061D01*
X132584Y500074D01*
X132610Y500078D01*
X132681Y500126D01*
X132714Y500144D01*
X132720Y500152D01*
X132730Y500159D01*
X138031Y505461D01*
X141479Y505461D01*
X141479Y495681D01*
X141490Y495631D01*
X141492Y495580D01*
X141510Y495548D01*
X141518Y495512D01*
X141551Y495473D01*
X141575Y495428D01*
X141605Y495407D01*
X141628Y495379D01*
X141675Y495358D01*
X141717Y495329D01*
X141759Y495320D01*
X141787Y495308D01*
X141817Y495309D01*
X141859Y495301D01*
X142621Y495301D01*
X142671Y495313D01*
X142722Y495314D01*
X142754Y495332D01*
X142790Y495340D01*
X142829Y495373D01*
X142874Y495397D01*
X142895Y495427D01*
X142923Y495451D01*
X142944Y495497D01*
X142974Y495539D01*
X142982Y495581D01*
X142994Y495609D01*
X142993Y495639D01*
X143001Y495681D01*
X143001Y505461D01*
X146449Y505461D01*
X151496Y500413D01*
X151518Y500400D01*
X151534Y500380D01*
X151591Y500354D01*
X151643Y500322D01*
X151669Y500319D01*
X151693Y500309D01*
X151754Y500311D01*
X151816Y500305D01*
X151840Y500314D01*
X151866Y500315D01*
X151920Y500345D01*
X151978Y500367D01*
X151995Y500386D01*
X152018Y500398D01*
X152053Y500449D01*
X152095Y500494D01*
X152103Y500519D01*
X152118Y500540D01*
X152134Y500624D01*
X152145Y500660D01*
X152143Y500670D01*
X152145Y500682D01*
X152145Y537098D01*
X153894Y538846D01*
X162194Y547146D01*
X163942Y548895D01*
X211032Y548895D01*
X211106Y548912D01*
X211181Y548925D01*
X211191Y548932D01*
X211201Y548934D01*
X211230Y548958D01*
X211301Y549006D01*
X213702Y551407D01*
X218098Y551407D01*
X221207Y548298D01*
X221207Y543902D01*
X218098Y540793D01*
X213702Y540793D01*
X211301Y543194D01*
X211237Y543234D01*
X211175Y543278D01*
X211163Y543280D01*
X211154Y543285D01*
X211117Y543289D01*
X211032Y543305D01*
X166415Y543305D01*
X166341Y543288D01*
X166266Y543275D01*
X166256Y543268D01*
X166246Y543266D01*
X166218Y543242D01*
X166146Y543194D01*
X157846Y534894D01*
X157806Y534829D01*
X157762Y534767D01*
X157760Y534755D01*
X157755Y534747D01*
X157751Y534710D01*
X157735Y534625D01*
X157735Y456042D01*
X155986Y454294D01*
X150951Y449259D01*
X150924Y449216D01*
X150890Y449178D01*
X150879Y449143D01*
X150860Y449112D01*
X150855Y449061D01*
X150841Y449012D01*
X150847Y448976D01*
X150843Y448939D01*
X150862Y448892D01*
X150870Y448841D01*
X150894Y448806D01*
X150905Y448777D01*
X150927Y448757D01*
X150951Y448721D01*
X151385Y448288D01*
X151385Y440712D01*
X146028Y435355D01*
X138452Y435355D01*
X133095Y440712D01*
X133095Y448288D01*
X138452Y453645D01*
X146028Y453645D01*
X146461Y453211D01*
X146505Y453184D01*
X146542Y453150D01*
X146577Y453139D01*
X146608Y453120D01*
X146659Y453115D01*
X146708Y453101D01*
X146744Y453107D01*
X146781Y453103D01*
X146829Y453122D01*
X146879Y453130D01*
X146914Y453154D01*
X146943Y453165D01*
X146964Y453187D01*
X146999Y453211D01*
X152034Y458246D01*
X152074Y458311D01*
X152118Y458373D01*
X152120Y458385D01*
X152125Y458393D01*
X152129Y458430D01*
X152145Y458515D01*
X152145Y489918D01*
X152139Y489943D01*
X152142Y489969D01*
X152132Y489994D01*
X152132Y490005D01*
X152120Y490026D01*
X152106Y490087D01*
X152089Y490106D01*
X152080Y490131D01*
X152035Y490173D01*
X151996Y490220D01*
X151972Y490231D01*
X151953Y490248D01*
X151894Y490266D01*
X151837Y490291D01*
X151812Y490290D01*
X151787Y490297D01*
X151726Y490287D01*
X151664Y490285D01*
X151642Y490272D01*
X151616Y490268D01*
X151545Y490220D01*
X151512Y490202D01*
X151506Y490194D01*
X151496Y490187D01*
X146449Y485139D01*
X143001Y485139D01*
X143001Y494919D01*
X142990Y494969D01*
X142988Y495020D01*
X142970Y495052D01*
X142962Y495088D01*
X142929Y495127D01*
X142905Y495172D01*
X142875Y495193D01*
X142852Y495221D01*
X142805Y495242D01*
X142763Y495271D01*
X142721Y495280D01*
X142693Y495292D01*
X142663Y495291D01*
X142621Y495299D01*
X141859Y495299D01*
X141809Y495287D01*
X141758Y495286D01*
X141726Y495268D01*
X141690Y495260D01*
X141651Y495227D01*
X141606Y495203D01*
X141585Y495173D01*
X141557Y495149D01*
X141536Y495103D01*
X141506Y495061D01*
X141498Y495019D01*
X141486Y494991D01*
X141487Y494961D01*
X141479Y494919D01*
X141479Y485139D01*
X138031Y485139D01*
X132730Y490441D01*
X132708Y490454D01*
X132692Y490474D01*
X132635Y490500D01*
X132583Y490532D01*
X132557Y490535D01*
X132533Y490545D01*
X132472Y490543D01*
X132410Y490549D01*
X132386Y490540D01*
X132360Y490539D01*
X132306Y490509D01*
X132248Y490487D01*
X132231Y490468D01*
X132208Y490456D01*
X132173Y490405D01*
X132131Y490360D01*
X132123Y490335D01*
X132108Y490314D01*
X132092Y490230D01*
X132081Y490194D01*
X132083Y490184D01*
X132081Y490172D01*
X132081Y403860D01*
X132085Y403844D01*
X132083Y403823D01*
X132270Y401915D01*
X132283Y401878D01*
X132298Y401807D01*
X133758Y398282D01*
X133759Y398280D01*
X133759Y398278D01*
X133840Y398158D01*
X136538Y395460D01*
X136540Y395459D01*
X136541Y395458D01*
X136662Y395378D01*
X140187Y393918D01*
X140225Y393911D01*
X140295Y393890D01*
X142203Y393703D01*
X142219Y393705D01*
X142240Y393701D01*
X802640Y393701D01*
X802656Y393705D01*
G37*
%LPC*%
G36*
X264628Y395985D02*
X264628Y395985D01*
X260801Y397571D01*
X257871Y400501D01*
X256285Y404328D01*
X256285Y408472D01*
X257871Y412299D01*
X260801Y415229D01*
X263671Y416418D01*
X263722Y416455D01*
X263778Y416485D01*
X263792Y416505D01*
X263811Y416519D01*
X263841Y416575D01*
X263878Y416627D01*
X263883Y416654D01*
X263893Y416672D01*
X263894Y416710D01*
X263905Y416769D01*
X263905Y584412D01*
X263888Y584486D01*
X263875Y584561D01*
X263868Y584571D01*
X263866Y584581D01*
X263842Y584610D01*
X263794Y584681D01*
X261393Y587082D01*
X261393Y591478D01*
X264502Y594587D01*
X268898Y594587D01*
X272007Y591478D01*
X272007Y587082D01*
X269606Y584681D01*
X269566Y584617D01*
X269522Y584555D01*
X269520Y584543D01*
X269515Y584534D01*
X269511Y584497D01*
X269495Y584412D01*
X269495Y577638D01*
X269501Y577612D01*
X269498Y577587D01*
X269520Y577529D01*
X269534Y577469D01*
X269551Y577449D01*
X269560Y577425D01*
X269605Y577383D01*
X269644Y577335D01*
X269668Y577325D01*
X269687Y577307D01*
X269746Y577290D01*
X269803Y577264D01*
X269828Y577265D01*
X269853Y577258D01*
X269914Y577269D01*
X269976Y577271D01*
X269998Y577283D01*
X270024Y577288D01*
X270095Y577336D01*
X270128Y577354D01*
X270134Y577362D01*
X270144Y577369D01*
X272122Y579347D01*
X276518Y579347D01*
X279627Y576238D01*
X279627Y571842D01*
X277226Y569441D01*
X277186Y569377D01*
X277142Y569315D01*
X277140Y569303D01*
X277135Y569294D01*
X277131Y569257D01*
X277115Y569172D01*
X277115Y558845D01*
X277121Y558820D01*
X277118Y558794D01*
X277140Y558737D01*
X277154Y558676D01*
X277171Y558656D01*
X277180Y558632D01*
X277225Y558590D01*
X277264Y558543D01*
X277288Y558532D01*
X277307Y558515D01*
X277366Y558497D01*
X277423Y558472D01*
X277448Y558473D01*
X277473Y558465D01*
X277534Y558476D01*
X277596Y558478D01*
X277618Y558491D01*
X277644Y558495D01*
X277715Y558543D01*
X277748Y558561D01*
X277754Y558569D01*
X277764Y558576D01*
X284142Y564954D01*
X284182Y565019D01*
X284226Y565081D01*
X284228Y565093D01*
X284233Y565101D01*
X284237Y565138D01*
X284253Y565223D01*
X284253Y568618D01*
X287362Y571727D01*
X291758Y571727D01*
X294867Y568618D01*
X294867Y564222D01*
X291758Y561113D01*
X288363Y561113D01*
X288289Y561096D01*
X288214Y561083D01*
X288204Y561076D01*
X288194Y561074D01*
X288166Y561050D01*
X288094Y561002D01*
X282306Y555214D01*
X282266Y555149D01*
X282222Y555087D01*
X282220Y555075D01*
X282215Y555067D01*
X282211Y555030D01*
X282208Y555013D01*
X282202Y554999D01*
X282202Y554984D01*
X282195Y554945D01*
X282195Y523285D01*
X282201Y523260D01*
X282198Y523234D01*
X282220Y523177D01*
X282234Y523116D01*
X282251Y523096D01*
X282260Y523072D01*
X282305Y523030D01*
X282344Y522983D01*
X282368Y522972D01*
X282387Y522955D01*
X282446Y522937D01*
X282503Y522912D01*
X282528Y522913D01*
X282553Y522905D01*
X282614Y522916D01*
X282676Y522918D01*
X282698Y522931D01*
X282724Y522935D01*
X282795Y522983D01*
X282828Y523001D01*
X282834Y523009D01*
X282844Y523016D01*
X299354Y539526D01*
X299394Y539591D01*
X299438Y539653D01*
X299440Y539665D01*
X299445Y539673D01*
X299449Y539710D01*
X299465Y539795D01*
X299465Y559012D01*
X299448Y559086D01*
X299435Y559161D01*
X299428Y559171D01*
X299426Y559181D01*
X299402Y559210D01*
X299354Y559281D01*
X296953Y561682D01*
X296953Y566078D01*
X300062Y569187D01*
X304458Y569187D01*
X307567Y566078D01*
X307567Y561682D01*
X305166Y559281D01*
X305126Y559217D01*
X305082Y559155D01*
X305080Y559143D01*
X305075Y559134D01*
X305071Y559097D01*
X305055Y559012D01*
X305055Y537322D01*
X287386Y519654D01*
X287346Y519589D01*
X287302Y519527D01*
X287300Y519515D01*
X287295Y519507D01*
X287291Y519470D01*
X287275Y519385D01*
X287275Y476295D01*
X287292Y476221D01*
X287305Y476146D01*
X287312Y476136D01*
X287314Y476126D01*
X287338Y476098D01*
X287386Y476026D01*
X297144Y466268D01*
X297166Y466255D01*
X297182Y466235D01*
X297239Y466209D01*
X297291Y466177D01*
X297317Y466174D01*
X297340Y466164D01*
X297402Y466166D01*
X297464Y466160D01*
X297488Y466169D01*
X297514Y466170D01*
X297568Y466200D01*
X297626Y466222D01*
X297643Y466241D01*
X297666Y466253D01*
X297701Y466304D01*
X297743Y466349D01*
X297751Y466374D01*
X297766Y466395D01*
X297782Y466479D01*
X297793Y466515D01*
X297791Y466525D01*
X297793Y466537D01*
X297793Y470398D01*
X300902Y473507D01*
X305298Y473507D01*
X308407Y470398D01*
X308407Y469230D01*
X308413Y469204D01*
X308410Y469179D01*
X308432Y469121D01*
X308446Y469061D01*
X308463Y469041D01*
X308472Y469017D01*
X308517Y468975D01*
X308556Y468927D01*
X308580Y468917D01*
X308599Y468899D01*
X308658Y468882D01*
X308714Y468856D01*
X308740Y468857D01*
X308765Y468850D01*
X308826Y468860D01*
X308888Y468863D01*
X308910Y468875D01*
X308936Y468880D01*
X309007Y468928D01*
X309040Y468946D01*
X309046Y468954D01*
X309056Y468961D01*
X311062Y470967D01*
X315458Y470967D01*
X318567Y467858D01*
X318567Y466690D01*
X318573Y466664D01*
X318570Y466639D01*
X318580Y466612D01*
X318580Y466608D01*
X318585Y466599D01*
X318592Y466581D01*
X318606Y466521D01*
X318623Y466501D01*
X318632Y466477D01*
X318677Y466435D01*
X318716Y466387D01*
X318740Y466377D01*
X318759Y466359D01*
X318818Y466342D01*
X318874Y466316D01*
X318900Y466317D01*
X318925Y466310D01*
X318986Y466320D01*
X319048Y466323D01*
X319070Y466335D01*
X319096Y466340D01*
X319167Y466388D01*
X319200Y466406D01*
X319206Y466414D01*
X319216Y466421D01*
X320792Y467997D01*
X325188Y467997D01*
X328297Y464888D01*
X328297Y460673D01*
X328314Y460599D01*
X328327Y460525D01*
X328334Y460514D01*
X328336Y460505D01*
X328360Y460476D01*
X328408Y460404D01*
X329324Y459488D01*
X329346Y459475D01*
X329362Y459455D01*
X329419Y459429D01*
X329471Y459397D01*
X329497Y459394D01*
X329521Y459384D01*
X329582Y459386D01*
X329644Y459380D01*
X329668Y459389D01*
X329694Y459390D01*
X329748Y459420D01*
X329806Y459442D01*
X329823Y459461D01*
X329846Y459473D01*
X329881Y459524D01*
X329923Y459569D01*
X329931Y459594D01*
X329946Y459615D01*
X329962Y459699D01*
X329973Y459735D01*
X329971Y459745D01*
X329973Y459757D01*
X329973Y461938D01*
X333082Y465047D01*
X337478Y465047D01*
X340587Y461938D01*
X340587Y460770D01*
X340593Y460744D01*
X340590Y460719D01*
X340612Y460661D01*
X340626Y460601D01*
X340643Y460581D01*
X340652Y460557D01*
X340697Y460515D01*
X340736Y460467D01*
X340760Y460457D01*
X340779Y460439D01*
X340838Y460422D01*
X340895Y460396D01*
X340920Y460397D01*
X340945Y460390D01*
X341006Y460401D01*
X341068Y460403D01*
X341090Y460415D01*
X341116Y460420D01*
X341187Y460468D01*
X341220Y460486D01*
X341226Y460494D01*
X341236Y460501D01*
X343242Y462507D01*
X347449Y462507D01*
X347499Y462518D01*
X347550Y462520D01*
X347582Y462538D01*
X347618Y462546D01*
X347657Y462579D01*
X347702Y462603D01*
X347723Y462633D01*
X347752Y462656D01*
X347772Y462703D01*
X347802Y462745D01*
X347810Y462787D01*
X347822Y462815D01*
X347822Y462832D01*
X347822Y462834D01*
X347822Y462848D01*
X347829Y462887D01*
X347829Y464554D01*
X350938Y467663D01*
X355334Y467663D01*
X358443Y464554D01*
X358443Y461159D01*
X358460Y461085D01*
X358473Y461011D01*
X358480Y461000D01*
X358482Y460991D01*
X358506Y460962D01*
X358554Y460890D01*
X363911Y455534D01*
X363975Y455494D01*
X364037Y455450D01*
X364049Y455448D01*
X364058Y455443D01*
X364095Y455439D01*
X364180Y455423D01*
X366734Y455423D01*
X366760Y455429D01*
X366785Y455426D01*
X366843Y455448D01*
X366903Y455462D01*
X366923Y455479D01*
X366947Y455488D01*
X366989Y455533D01*
X367037Y455572D01*
X367047Y455596D01*
X367065Y455615D01*
X367082Y455674D01*
X367108Y455731D01*
X367107Y455756D01*
X367114Y455781D01*
X367103Y455842D01*
X367101Y455904D01*
X367089Y455926D01*
X367084Y455952D01*
X367036Y456023D01*
X367018Y456056D01*
X367010Y456062D01*
X367003Y456072D01*
X365533Y457542D01*
X365533Y461938D01*
X368642Y465047D01*
X373038Y465047D01*
X375439Y462646D01*
X375503Y462606D01*
X375565Y462562D01*
X375577Y462560D01*
X375586Y462555D01*
X375623Y462551D01*
X375708Y462535D01*
X381212Y462535D01*
X381286Y462552D01*
X381361Y462565D01*
X381371Y462572D01*
X381381Y462574D01*
X381410Y462598D01*
X381481Y462646D01*
X383882Y465047D01*
X388278Y465047D01*
X391387Y461938D01*
X391387Y457542D01*
X389917Y456072D01*
X389903Y456050D01*
X389883Y456034D01*
X389858Y455977D01*
X389825Y455925D01*
X389823Y455899D01*
X389812Y455875D01*
X389815Y455814D01*
X389809Y455752D01*
X389818Y455728D01*
X389819Y455702D01*
X389848Y455648D01*
X389870Y455590D01*
X389889Y455573D01*
X389902Y455550D01*
X389952Y455515D01*
X389997Y455473D01*
X390022Y455465D01*
X390043Y455450D01*
X390128Y455434D01*
X390164Y455423D01*
X390174Y455425D01*
X390186Y455423D01*
X476142Y455423D01*
X484413Y447152D01*
X484477Y447112D01*
X484539Y447068D01*
X484551Y447066D01*
X484560Y447061D01*
X484597Y447057D01*
X484682Y447041D01*
X493825Y447041D01*
X493853Y447047D01*
X493881Y447045D01*
X493936Y447067D01*
X493994Y447080D01*
X494016Y447098D01*
X494042Y447108D01*
X494082Y447153D01*
X494128Y447190D01*
X494139Y447216D01*
X494158Y447237D01*
X494174Y447294D01*
X494199Y447349D01*
X494198Y447377D01*
X494205Y447404D01*
X494194Y447462D01*
X494192Y447522D01*
X494179Y447546D01*
X494174Y447574D01*
X494138Y447622D01*
X494109Y447674D01*
X494086Y447690D01*
X494070Y447713D01*
X493999Y447752D01*
X493968Y447774D01*
X493955Y447776D01*
X493943Y447783D01*
X493940Y447784D01*
X492515Y448510D01*
X491221Y449450D01*
X490090Y450581D01*
X489150Y451875D01*
X488424Y453300D01*
X487929Y454821D01*
X487679Y456400D01*
X487679Y456439D01*
X505079Y456439D01*
X505129Y456450D01*
X505180Y456452D01*
X505212Y456470D01*
X505248Y456478D01*
X505287Y456511D01*
X505332Y456535D01*
X505353Y456565D01*
X505381Y456588D01*
X505402Y456635D01*
X505431Y456677D01*
X505440Y456719D01*
X505452Y456747D01*
X505452Y456750D01*
X505451Y456778D01*
X505459Y456819D01*
X505459Y457201D01*
X505461Y457201D01*
X505461Y456819D01*
X505473Y456769D01*
X505474Y456718D01*
X505492Y456686D01*
X505500Y456650D01*
X505533Y456611D01*
X505557Y456566D01*
X505587Y456545D01*
X505611Y456517D01*
X505657Y456496D01*
X505699Y456466D01*
X505741Y456458D01*
X505769Y456446D01*
X505799Y456447D01*
X505841Y456439D01*
X523241Y456439D01*
X523241Y456400D01*
X522991Y454821D01*
X522496Y453300D01*
X521770Y451875D01*
X520830Y450581D01*
X519699Y449450D01*
X518405Y448510D01*
X516980Y447784D01*
X515459Y447289D01*
X513880Y447039D01*
X510331Y447039D01*
X510306Y447033D01*
X510280Y447036D01*
X510223Y447014D01*
X510162Y447000D01*
X510142Y446983D01*
X510118Y446974D01*
X510076Y446929D01*
X510029Y446890D01*
X510018Y446866D01*
X510001Y446847D01*
X509983Y446788D01*
X509958Y446731D01*
X509959Y446706D01*
X509951Y446681D01*
X509962Y446620D01*
X509964Y446558D01*
X509977Y446536D01*
X509981Y446510D01*
X510029Y446439D01*
X510047Y446406D01*
X510055Y446400D01*
X510062Y446390D01*
X540744Y415708D01*
X540798Y415675D01*
X540847Y415635D01*
X540871Y415630D01*
X540891Y415617D01*
X540954Y415611D01*
X541016Y415597D01*
X541043Y415602D01*
X541064Y415600D01*
X541099Y415614D01*
X541158Y415626D01*
X544028Y416815D01*
X548172Y416815D01*
X551999Y415229D01*
X554929Y412299D01*
X556515Y408472D01*
X556515Y404328D01*
X554929Y400501D01*
X551999Y397571D01*
X548172Y395985D01*
X544028Y395985D01*
X540201Y397571D01*
X537271Y400501D01*
X535685Y404328D01*
X535685Y408472D01*
X536874Y411342D01*
X536884Y411404D01*
X536902Y411465D01*
X536898Y411489D01*
X536902Y411513D01*
X536884Y411573D01*
X536873Y411636D01*
X536858Y411658D01*
X536851Y411678D01*
X536826Y411706D01*
X536792Y411756D01*
X507208Y441340D01*
X507143Y441380D01*
X507081Y441424D01*
X507069Y441426D01*
X507061Y441431D01*
X507024Y441435D01*
X506939Y441451D01*
X482209Y441451D01*
X473938Y449722D01*
X473874Y449762D01*
X473811Y449806D01*
X473799Y449808D01*
X473791Y449813D01*
X473754Y449817D01*
X473669Y449833D01*
X473261Y449833D01*
X473236Y449827D01*
X473210Y449830D01*
X473152Y449808D01*
X473092Y449794D01*
X473072Y449777D01*
X473048Y449768D01*
X473006Y449723D01*
X472958Y449684D01*
X472948Y449660D01*
X472930Y449641D01*
X472913Y449582D01*
X472887Y449525D01*
X472888Y449500D01*
X472881Y449475D01*
X472892Y449414D01*
X472894Y449352D01*
X472906Y449330D01*
X472911Y449304D01*
X472959Y449233D01*
X472977Y449200D01*
X472985Y449194D01*
X472992Y449184D01*
X510884Y411292D01*
X510917Y411271D01*
X510943Y411243D01*
X510990Y411226D01*
X510991Y411225D01*
X510999Y411220D01*
X511001Y411220D01*
X511032Y411200D01*
X511070Y411197D01*
X511106Y411183D01*
X511155Y411188D01*
X511204Y411184D01*
X511240Y411197D01*
X511278Y411201D01*
X511320Y411228D01*
X511366Y411245D01*
X511392Y411274D01*
X511425Y411294D01*
X511451Y411334D01*
X511461Y411342D01*
X511465Y411353D01*
X511484Y411372D01*
X511490Y411393D01*
X511505Y411415D01*
X511871Y412299D01*
X514801Y415229D01*
X518628Y416815D01*
X522772Y416815D01*
X526599Y415229D01*
X529529Y412299D01*
X531115Y408472D01*
X531115Y404328D01*
X529529Y400501D01*
X526599Y397571D01*
X522772Y395985D01*
X518628Y395985D01*
X514801Y397571D01*
X511871Y400501D01*
X510556Y403674D01*
X510555Y403676D01*
X510555Y403677D01*
X510474Y403797D01*
X506364Y407907D01*
X506342Y407921D01*
X506326Y407941D01*
X506269Y407966D01*
X506217Y407999D01*
X506191Y408001D01*
X506167Y408012D01*
X506106Y408010D01*
X506044Y408015D01*
X506020Y408006D01*
X505994Y408005D01*
X505940Y407976D01*
X505882Y407954D01*
X505865Y407935D01*
X505842Y407923D01*
X505807Y407872D01*
X505765Y407827D01*
X505757Y407802D01*
X505742Y407781D01*
X505726Y407696D01*
X505715Y407661D01*
X505717Y407651D01*
X505715Y407639D01*
X505715Y404328D01*
X504129Y400501D01*
X501199Y397571D01*
X497372Y395985D01*
X493228Y395985D01*
X489401Y397571D01*
X486471Y400501D01*
X484885Y404328D01*
X484885Y408472D01*
X486074Y411342D01*
X486084Y411404D01*
X486102Y411465D01*
X486098Y411489D01*
X486102Y411513D01*
X486084Y411573D01*
X486073Y411636D01*
X486058Y411658D01*
X486051Y411678D01*
X486026Y411706D01*
X485992Y411756D01*
X456154Y441594D01*
X456089Y441634D01*
X456027Y441678D01*
X456015Y441680D01*
X456007Y441685D01*
X455970Y441689D01*
X455885Y441705D01*
X430589Y441705D01*
X430564Y441699D01*
X430538Y441702D01*
X430480Y441680D01*
X430420Y441666D01*
X430400Y441649D01*
X430376Y441640D01*
X430334Y441595D01*
X430286Y441556D01*
X430276Y441532D01*
X430258Y441513D01*
X430241Y441454D01*
X430215Y441397D01*
X430216Y441372D01*
X430209Y441347D01*
X430220Y441286D01*
X430222Y441224D01*
X430234Y441202D01*
X430239Y441176D01*
X430287Y441105D01*
X430305Y441072D01*
X430313Y441066D01*
X430320Y441056D01*
X460084Y411292D01*
X460117Y411271D01*
X460143Y411243D01*
X460190Y411226D01*
X460191Y411225D01*
X460199Y411220D01*
X460201Y411220D01*
X460232Y411200D01*
X460270Y411197D01*
X460306Y411183D01*
X460355Y411188D01*
X460404Y411184D01*
X460440Y411197D01*
X460478Y411201D01*
X460520Y411228D01*
X460566Y411245D01*
X460592Y411274D01*
X460625Y411294D01*
X460651Y411334D01*
X460661Y411342D01*
X460665Y411353D01*
X460684Y411372D01*
X460690Y411393D01*
X460705Y411415D01*
X461071Y412299D01*
X464001Y415229D01*
X467828Y416815D01*
X471972Y416815D01*
X475799Y415229D01*
X478729Y412299D01*
X480315Y408472D01*
X480315Y404328D01*
X478729Y400501D01*
X475799Y397571D01*
X471972Y395985D01*
X467828Y395985D01*
X464001Y397571D01*
X461071Y400501D01*
X459756Y403674D01*
X459755Y403676D01*
X459755Y403677D01*
X459674Y403797D01*
X455564Y407907D01*
X455542Y407921D01*
X455526Y407941D01*
X455469Y407966D01*
X455417Y407999D01*
X455391Y408001D01*
X455367Y408012D01*
X455306Y408010D01*
X455244Y408015D01*
X455220Y408006D01*
X455194Y408005D01*
X455140Y407976D01*
X455082Y407954D01*
X455065Y407935D01*
X455042Y407923D01*
X455007Y407872D01*
X454965Y407827D01*
X454957Y407802D01*
X454942Y407781D01*
X454926Y407696D01*
X454915Y407661D01*
X454917Y407651D01*
X454915Y407639D01*
X454915Y404328D01*
X453329Y400501D01*
X450399Y397571D01*
X446572Y395985D01*
X442428Y395985D01*
X438601Y397571D01*
X435671Y400501D01*
X434356Y403674D01*
X434355Y403676D01*
X434355Y403677D01*
X434274Y403797D01*
X430164Y407907D01*
X430142Y407921D01*
X430126Y407941D01*
X430069Y407966D01*
X430017Y407999D01*
X429991Y408001D01*
X429967Y408012D01*
X429906Y408010D01*
X429844Y408015D01*
X429820Y408006D01*
X429794Y408005D01*
X429740Y407976D01*
X429682Y407954D01*
X429665Y407935D01*
X429642Y407923D01*
X429607Y407872D01*
X429565Y407827D01*
X429557Y407802D01*
X429542Y407781D01*
X429526Y407696D01*
X429515Y407661D01*
X429517Y407651D01*
X429515Y407639D01*
X429515Y404328D01*
X427929Y400501D01*
X424999Y397571D01*
X421172Y395985D01*
X417028Y395985D01*
X413201Y397571D01*
X410271Y400501D01*
X408956Y403674D01*
X408955Y403676D01*
X408955Y403677D01*
X408874Y403797D01*
X407318Y405354D01*
X404764Y407907D01*
X404742Y407921D01*
X404726Y407941D01*
X404669Y407966D01*
X404617Y407999D01*
X404591Y408001D01*
X404567Y408012D01*
X404506Y408010D01*
X404444Y408015D01*
X404420Y408006D01*
X404394Y408005D01*
X404340Y407976D01*
X404282Y407954D01*
X404265Y407935D01*
X404242Y407923D01*
X404207Y407872D01*
X404165Y407827D01*
X404157Y407802D01*
X404142Y407781D01*
X404126Y407696D01*
X404115Y407661D01*
X404117Y407651D01*
X404115Y407639D01*
X404115Y404328D01*
X402529Y400501D01*
X399599Y397571D01*
X395772Y395985D01*
X391628Y395985D01*
X387801Y397571D01*
X384871Y400501D01*
X383556Y403674D01*
X383555Y403676D01*
X383555Y403677D01*
X383474Y403797D01*
X379364Y407907D01*
X379342Y407921D01*
X379326Y407941D01*
X379269Y407966D01*
X379217Y407999D01*
X379191Y408001D01*
X379167Y408012D01*
X379106Y408010D01*
X379044Y408015D01*
X379020Y408006D01*
X378994Y408005D01*
X378940Y407976D01*
X378882Y407954D01*
X378865Y407935D01*
X378842Y407923D01*
X378807Y407872D01*
X378765Y407827D01*
X378757Y407802D01*
X378742Y407781D01*
X378726Y407696D01*
X378715Y407661D01*
X378717Y407651D01*
X378715Y407639D01*
X378715Y404328D01*
X377129Y400501D01*
X374199Y397571D01*
X370372Y395985D01*
X366228Y395985D01*
X362401Y397571D01*
X359471Y400501D01*
X357885Y404328D01*
X357885Y408472D01*
X359074Y411342D01*
X359084Y411404D01*
X359102Y411465D01*
X359098Y411489D01*
X359102Y411513D01*
X359084Y411573D01*
X359073Y411636D01*
X359058Y411658D01*
X359051Y411678D01*
X359026Y411706D01*
X358992Y411756D01*
X352014Y418734D01*
X351949Y418774D01*
X351887Y418818D01*
X351875Y418820D01*
X351867Y418825D01*
X351830Y418829D01*
X351745Y418845D01*
X330245Y418845D01*
X330220Y418839D01*
X330194Y418842D01*
X330137Y418820D01*
X330076Y418806D01*
X330056Y418789D01*
X330032Y418780D01*
X329990Y418735D01*
X329943Y418696D01*
X329932Y418672D01*
X329915Y418653D01*
X329897Y418594D01*
X329872Y418537D01*
X329873Y418512D01*
X329865Y418487D01*
X329876Y418426D01*
X329878Y418364D01*
X329891Y418342D01*
X329895Y418316D01*
X329943Y418245D01*
X329961Y418212D01*
X329969Y418206D01*
X329976Y418196D01*
X334703Y413469D01*
X334746Y413442D01*
X334784Y413408D01*
X334819Y413397D01*
X334850Y413378D01*
X334901Y413373D01*
X334950Y413359D01*
X334986Y413365D01*
X335023Y413361D01*
X335070Y413380D01*
X335121Y413388D01*
X335156Y413412D01*
X335185Y413423D01*
X335205Y413446D01*
X335241Y413469D01*
X337001Y415229D01*
X340828Y416815D01*
X344972Y416815D01*
X348799Y415229D01*
X351729Y412299D01*
X353315Y408472D01*
X353315Y404328D01*
X351729Y400501D01*
X348799Y397571D01*
X344972Y395985D01*
X340828Y395985D01*
X337001Y397571D01*
X334071Y400501D01*
X332485Y404328D01*
X332485Y407625D01*
X332468Y407699D01*
X332455Y407774D01*
X332448Y407784D01*
X332446Y407794D01*
X332422Y407822D01*
X332374Y407894D01*
X328351Y411917D01*
X328327Y411932D01*
X328309Y411953D01*
X328254Y411977D01*
X328203Y412008D01*
X328175Y412011D01*
X328150Y412022D01*
X328090Y412019D01*
X328031Y412025D01*
X328005Y412015D01*
X327977Y412014D01*
X327925Y411985D01*
X327869Y411963D01*
X327850Y411943D01*
X327825Y411929D01*
X327792Y411880D01*
X327751Y411836D01*
X327743Y411809D01*
X327727Y411786D01*
X327719Y411727D01*
X327702Y411670D01*
X327707Y411643D01*
X327703Y411615D01*
X327725Y411537D01*
X327732Y411499D01*
X327739Y411488D01*
X327743Y411476D01*
X328093Y410788D01*
X328649Y409077D01*
X328931Y407300D01*
X328931Y407161D01*
X318261Y407161D01*
X318261Y417831D01*
X318400Y417831D01*
X320177Y417549D01*
X321888Y416993D01*
X322576Y416643D01*
X322603Y416636D01*
X322627Y416621D01*
X322686Y416616D01*
X322744Y416601D01*
X322771Y416608D01*
X322799Y416605D01*
X322855Y416626D01*
X322913Y416639D01*
X322935Y416657D01*
X322961Y416666D01*
X323002Y416710D01*
X323048Y416748D01*
X323060Y416773D01*
X323079Y416794D01*
X323096Y416851D01*
X323121Y416905D01*
X323120Y416933D01*
X323128Y416960D01*
X323118Y417019D01*
X323116Y417078D01*
X323103Y417103D01*
X323098Y417130D01*
X323053Y417197D01*
X323035Y417231D01*
X323025Y417240D01*
X323017Y417251D01*
X273274Y466994D01*
X271525Y468742D01*
X271525Y569172D01*
X271508Y569246D01*
X271495Y569321D01*
X271488Y569331D01*
X271486Y569341D01*
X271462Y569370D01*
X271414Y569441D01*
X270144Y570711D01*
X270122Y570725D01*
X270106Y570745D01*
X270049Y570770D01*
X269997Y570803D01*
X269971Y570805D01*
X269947Y570816D01*
X269886Y570813D01*
X269824Y570819D01*
X269800Y570810D01*
X269774Y570809D01*
X269720Y570780D01*
X269662Y570758D01*
X269645Y570739D01*
X269622Y570726D01*
X269587Y570676D01*
X269545Y570631D01*
X269537Y570606D01*
X269522Y570585D01*
X269506Y570500D01*
X269495Y570464D01*
X269497Y570454D01*
X269495Y570442D01*
X269495Y416769D01*
X269509Y416707D01*
X269516Y416644D01*
X269529Y416624D01*
X269534Y416601D01*
X269575Y416552D01*
X269609Y416498D01*
X269631Y416483D01*
X269644Y416467D01*
X269679Y416452D01*
X269729Y416418D01*
X272599Y415229D01*
X275529Y412299D01*
X277115Y408472D01*
X277115Y404328D01*
X275529Y400501D01*
X272599Y397571D01*
X268772Y395985D01*
X264628Y395985D01*
G37*
%LPD*%
%LPC*%
G36*
X239228Y395985D02*
X239228Y395985D01*
X235401Y397571D01*
X232471Y400501D01*
X230885Y404328D01*
X230885Y408472D01*
X232471Y412299D01*
X235401Y415229D01*
X238271Y416418D01*
X238322Y416455D01*
X238378Y416485D01*
X238392Y416505D01*
X238411Y416519D01*
X238441Y416575D01*
X238478Y416627D01*
X238483Y416654D01*
X238493Y416672D01*
X238494Y416710D01*
X238505Y416769D01*
X238505Y570118D01*
X248582Y580194D01*
X248622Y580259D01*
X248666Y580321D01*
X248668Y580333D01*
X248673Y580341D01*
X248677Y580378D01*
X248693Y580463D01*
X248693Y583858D01*
X251802Y586967D01*
X256198Y586967D01*
X259307Y583858D01*
X259307Y579462D01*
X256198Y576353D01*
X252803Y576353D01*
X252729Y576336D01*
X252654Y576323D01*
X252644Y576316D01*
X252634Y576314D01*
X252606Y576290D01*
X252534Y576242D01*
X244206Y567914D01*
X244166Y567849D01*
X244122Y567787D01*
X244120Y567775D01*
X244115Y567767D01*
X244111Y567730D01*
X244095Y567645D01*
X244095Y416769D01*
X244109Y416707D01*
X244116Y416644D01*
X244129Y416624D01*
X244134Y416601D01*
X244175Y416552D01*
X244209Y416498D01*
X244231Y416483D01*
X244244Y416467D01*
X244279Y416452D01*
X244329Y416418D01*
X247199Y415229D01*
X250129Y412299D01*
X251715Y408472D01*
X251715Y404328D01*
X250129Y400501D01*
X247199Y397571D01*
X243372Y395985D01*
X239228Y395985D01*
G37*
%LPD*%
%LPC*%
G36*
X180682Y411253D02*
X180682Y411253D01*
X177573Y414362D01*
X177573Y418758D01*
X179974Y421159D01*
X180014Y421223D01*
X180058Y421285D01*
X180060Y421297D01*
X180065Y421306D01*
X180069Y421343D01*
X180077Y421383D01*
X180078Y421387D01*
X180078Y421391D01*
X180085Y421428D01*
X180085Y478745D01*
X180068Y478819D01*
X180055Y478894D01*
X180048Y478904D01*
X180046Y478914D01*
X180022Y478942D01*
X179974Y479014D01*
X172399Y486589D01*
X172356Y486616D01*
X172318Y486650D01*
X172283Y486661D01*
X172252Y486680D01*
X172201Y486685D01*
X172152Y486699D01*
X172116Y486693D01*
X172079Y486697D01*
X172032Y486678D01*
X171981Y486670D01*
X171946Y486646D01*
X171917Y486635D01*
X171897Y486612D01*
X171861Y486589D01*
X171428Y486155D01*
X163852Y486155D01*
X158495Y491512D01*
X158495Y499088D01*
X163852Y504445D01*
X171428Y504445D01*
X176785Y499088D01*
X176785Y491512D01*
X176351Y491079D01*
X176324Y491035D01*
X176290Y490998D01*
X176279Y490963D01*
X176260Y490932D01*
X176255Y490881D01*
X176241Y490832D01*
X176247Y490796D01*
X176243Y490759D01*
X176262Y490711D01*
X176270Y490661D01*
X176294Y490626D01*
X176305Y490597D01*
X176328Y490576D01*
X176351Y490541D01*
X185675Y481218D01*
X185675Y421428D01*
X185688Y421372D01*
X185688Y421358D01*
X185693Y421350D01*
X185705Y421279D01*
X185712Y421269D01*
X185714Y421259D01*
X185738Y421230D01*
X185786Y421159D01*
X188187Y418758D01*
X188187Y414362D01*
X185078Y411253D01*
X180682Y411253D01*
G37*
%LPD*%
%LPC*%
G36*
X496021Y549655D02*
X496021Y549655D01*
X492660Y551047D01*
X490087Y553620D01*
X488695Y556981D01*
X488695Y560619D01*
X490087Y563980D01*
X492660Y566553D01*
X496021Y567945D01*
X514899Y567945D01*
X518260Y566553D01*
X520833Y563980D01*
X522225Y560619D01*
X522225Y556981D01*
X520833Y553620D01*
X518260Y551047D01*
X514899Y549655D01*
X496021Y549655D01*
G37*
%LPD*%
%LPC*%
G36*
X239228Y624585D02*
X239228Y624585D01*
X235401Y626171D01*
X232471Y629101D01*
X230885Y632928D01*
X230885Y637072D01*
X232471Y640899D01*
X235401Y643829D01*
X239228Y645415D01*
X243372Y645415D01*
X247199Y643829D01*
X250129Y640899D01*
X251715Y637072D01*
X251715Y632928D01*
X250129Y629101D01*
X247199Y626171D01*
X243372Y624585D01*
X239228Y624585D01*
G37*
%LPD*%
%LPC*%
G36*
X315428Y624585D02*
X315428Y624585D01*
X311601Y626171D01*
X308671Y629101D01*
X307085Y632928D01*
X307085Y637072D01*
X308671Y640899D01*
X311601Y643829D01*
X315428Y645415D01*
X319572Y645415D01*
X323399Y643829D01*
X326329Y640899D01*
X327915Y637072D01*
X327915Y632928D01*
X326329Y629101D01*
X323399Y626171D01*
X319572Y624585D01*
X315428Y624585D01*
G37*
%LPD*%
%LPC*%
G36*
X290028Y624585D02*
X290028Y624585D01*
X286201Y626171D01*
X283271Y629101D01*
X281685Y632928D01*
X281685Y637072D01*
X283271Y640899D01*
X286201Y643829D01*
X290028Y645415D01*
X294172Y645415D01*
X297999Y643829D01*
X300929Y640899D01*
X302515Y637072D01*
X302515Y632928D01*
X300929Y629101D01*
X297999Y626171D01*
X294172Y624585D01*
X290028Y624585D01*
G37*
%LPD*%
%LPC*%
G36*
X594828Y395985D02*
X594828Y395985D01*
X591001Y397571D01*
X588071Y400501D01*
X586485Y404328D01*
X586485Y408472D01*
X588071Y412299D01*
X591001Y415229D01*
X594828Y416815D01*
X598972Y416815D01*
X602799Y415229D01*
X605729Y412299D01*
X607315Y408472D01*
X607315Y404328D01*
X605729Y400501D01*
X602799Y397571D01*
X598972Y395985D01*
X594828Y395985D01*
G37*
%LPD*%
%LPC*%
G36*
X569428Y395985D02*
X569428Y395985D01*
X565601Y397571D01*
X562671Y400501D01*
X561085Y404328D01*
X561085Y408472D01*
X562671Y412299D01*
X565601Y415229D01*
X569428Y416815D01*
X573572Y416815D01*
X577399Y415229D01*
X580329Y412299D01*
X581915Y408472D01*
X581915Y404328D01*
X580329Y400501D01*
X577399Y397571D01*
X573572Y395985D01*
X569428Y395985D01*
G37*
%LPD*%
%LPC*%
G36*
X290028Y395985D02*
X290028Y395985D01*
X286201Y397571D01*
X283271Y400501D01*
X281685Y404328D01*
X281685Y408472D01*
X283271Y412299D01*
X286201Y415229D01*
X290028Y416815D01*
X294172Y416815D01*
X297999Y415229D01*
X300929Y412299D01*
X302515Y408472D01*
X302515Y404328D01*
X300929Y400501D01*
X297999Y397571D01*
X294172Y395985D01*
X290028Y395985D01*
G37*
%LPD*%
%LPC*%
G36*
X706462Y614453D02*
X706462Y614453D01*
X703353Y617562D01*
X703353Y621958D01*
X706462Y625067D01*
X710858Y625067D01*
X713259Y622666D01*
X713323Y622626D01*
X713385Y622582D01*
X713397Y622580D01*
X713406Y622575D01*
X713443Y622571D01*
X713528Y622555D01*
X731732Y622555D01*
X731806Y622572D01*
X731881Y622585D01*
X731891Y622592D01*
X731901Y622594D01*
X731930Y622618D01*
X732001Y622666D01*
X734402Y625067D01*
X738798Y625067D01*
X741907Y621958D01*
X741907Y617562D01*
X738798Y614453D01*
X734402Y614453D01*
X732001Y616854D01*
X731937Y616894D01*
X731875Y616938D01*
X731863Y616940D01*
X731854Y616945D01*
X731817Y616949D01*
X731732Y616965D01*
X713528Y616965D01*
X713454Y616948D01*
X713379Y616935D01*
X713369Y616928D01*
X713359Y616926D01*
X713330Y616902D01*
X713259Y616854D01*
X710858Y614453D01*
X706462Y614453D01*
G37*
%LPD*%
%LPC*%
G36*
X138452Y460755D02*
X138452Y460755D01*
X133095Y466112D01*
X133095Y473688D01*
X138452Y479045D01*
X146028Y479045D01*
X151385Y473688D01*
X151385Y466112D01*
X146028Y460755D01*
X138452Y460755D01*
G37*
%LPD*%
%LPC*%
G36*
X163852Y460755D02*
X163852Y460755D01*
X158495Y466112D01*
X158495Y473688D01*
X163852Y479045D01*
X171428Y479045D01*
X176785Y473688D01*
X176785Y466112D01*
X171428Y460755D01*
X163852Y460755D01*
G37*
%LPD*%
%LPC*%
G36*
X165821Y435355D02*
X165821Y435355D01*
X162460Y436747D01*
X159887Y439320D01*
X158495Y442681D01*
X158495Y446319D01*
X159887Y449680D01*
X162460Y452253D01*
X165821Y453645D01*
X169459Y453645D01*
X172820Y452253D01*
X175393Y449680D01*
X176785Y446319D01*
X176785Y442681D01*
X175393Y439320D01*
X172820Y436747D01*
X169459Y435355D01*
X165821Y435355D01*
G37*
%LPD*%
%LPC*%
G36*
X771669Y532909D02*
X771669Y532909D01*
X769173Y533943D01*
X767263Y535853D01*
X766229Y538349D01*
X766229Y541051D01*
X767263Y543547D01*
X769173Y545457D01*
X771669Y546491D01*
X774371Y546491D01*
X776867Y545457D01*
X778777Y543547D01*
X779811Y541051D01*
X779811Y538349D01*
X778777Y535853D01*
X776867Y533943D01*
X774371Y532909D01*
X771669Y532909D01*
G37*
%LPD*%
%LPC*%
G36*
X771669Y494909D02*
X771669Y494909D01*
X769173Y495943D01*
X767263Y497853D01*
X766229Y500349D01*
X766229Y503051D01*
X767263Y505547D01*
X769173Y507457D01*
X771669Y508491D01*
X774371Y508491D01*
X776867Y507457D01*
X778777Y505547D01*
X779811Y503051D01*
X779811Y500349D01*
X778777Y497853D01*
X776867Y495943D01*
X774371Y494909D01*
X771669Y494909D01*
G37*
%LPD*%
%LPC*%
G36*
X506221Y457961D02*
X506221Y457961D01*
X506221Y467361D01*
X513880Y467361D01*
X515459Y467111D01*
X516980Y466616D01*
X518405Y465890D01*
X519699Y464950D01*
X520830Y463819D01*
X521770Y462525D01*
X522496Y461100D01*
X522991Y459579D01*
X523241Y458000D01*
X523241Y457961D01*
X506221Y457961D01*
G37*
%LPD*%
%LPC*%
G36*
X487679Y457961D02*
X487679Y457961D01*
X487679Y458000D01*
X487929Y459579D01*
X488424Y461100D01*
X489150Y462525D01*
X490090Y463819D01*
X491221Y464950D01*
X492515Y465890D01*
X493940Y466616D01*
X495461Y467111D01*
X497040Y467361D01*
X504699Y467361D01*
X504699Y457961D01*
X487679Y457961D01*
G37*
%LPD*%
%LPC*%
G36*
X267461Y635761D02*
X267461Y635761D01*
X267461Y646431D01*
X267600Y646431D01*
X269377Y646149D01*
X271088Y645593D01*
X272691Y644776D01*
X274147Y643719D01*
X275419Y642447D01*
X276476Y640991D01*
X277293Y639388D01*
X277849Y637677D01*
X278131Y635900D01*
X278131Y635761D01*
X267461Y635761D01*
G37*
%LPD*%
%LPC*%
G36*
X255269Y635761D02*
X255269Y635761D01*
X255269Y635900D01*
X255551Y637677D01*
X256107Y639388D01*
X256924Y640991D01*
X257981Y642447D01*
X259253Y643719D01*
X260709Y644776D01*
X262312Y645593D01*
X264023Y646149D01*
X265800Y646431D01*
X265939Y646431D01*
X265939Y635761D01*
X255269Y635761D01*
G37*
%LPD*%
%LPC*%
G36*
X267461Y623569D02*
X267461Y623569D01*
X267461Y634239D01*
X278131Y634239D01*
X278131Y634100D01*
X277849Y632323D01*
X277293Y630612D01*
X276476Y629009D01*
X275419Y627553D01*
X274147Y626281D01*
X272691Y625224D01*
X271088Y624407D01*
X269377Y623851D01*
X267600Y623569D01*
X267461Y623569D01*
G37*
%LPD*%
%LPC*%
G36*
X306069Y407161D02*
X306069Y407161D01*
X306069Y407300D01*
X306351Y409077D01*
X306907Y410788D01*
X307724Y412391D01*
X308781Y413847D01*
X310053Y415119D01*
X311509Y416176D01*
X313112Y416993D01*
X314823Y417549D01*
X316600Y417831D01*
X316739Y417831D01*
X316739Y407161D01*
X306069Y407161D01*
G37*
%LPD*%
%LPC*%
G36*
X318261Y394969D02*
X318261Y394969D01*
X318261Y405639D01*
X328931Y405639D01*
X328931Y405500D01*
X328649Y403723D01*
X328093Y402012D01*
X327276Y400409D01*
X326219Y398953D01*
X324947Y397681D01*
X323491Y396624D01*
X321888Y395807D01*
X320177Y395251D01*
X318400Y394969D01*
X318261Y394969D01*
G37*
%LPD*%
%LPC*%
G36*
X265800Y623569D02*
X265800Y623569D01*
X264023Y623851D01*
X262312Y624407D01*
X260709Y625224D01*
X259253Y626281D01*
X257981Y627553D01*
X256924Y629009D01*
X256107Y630612D01*
X255551Y632323D01*
X255269Y634100D01*
X255269Y634239D01*
X265939Y634239D01*
X265939Y623569D01*
X265800Y623569D01*
G37*
%LPD*%
%LPC*%
G36*
X316600Y394969D02*
X316600Y394969D01*
X314823Y395251D01*
X313112Y395807D01*
X311509Y396624D01*
X310053Y397681D01*
X308781Y398953D01*
X307724Y400409D01*
X306907Y402012D01*
X306351Y403723D01*
X306069Y405500D01*
X306069Y405639D01*
X316739Y405639D01*
X316739Y394969D01*
X316600Y394969D01*
G37*
%LPD*%
%LPC*%
G36*
X266699Y634999D02*
X266699Y634999D01*
X266699Y635001D01*
X266701Y635001D01*
X266701Y634999D01*
X266699Y634999D01*
G37*
%LPD*%
%LPC*%
G36*
X317499Y406399D02*
X317499Y406399D01*
X317499Y406401D01*
X317501Y406401D01*
X317501Y406399D01*
X317499Y406399D01*
G37*
%LPD*%
D10*
X241300Y406400D03*
X266700Y406400D03*
X292100Y406400D03*
X317500Y406400D03*
X342900Y406400D03*
X368300Y406400D03*
X393700Y406400D03*
X419100Y406400D03*
X444500Y406400D03*
X469900Y406400D03*
X495300Y406400D03*
X520700Y406400D03*
X546100Y406400D03*
X571500Y406400D03*
X596900Y406400D03*
X241300Y635000D03*
X266700Y635000D03*
X292100Y635000D03*
X317500Y635000D03*
X342900Y635000D03*
X368300Y635000D03*
X393700Y635000D03*
X419100Y635000D03*
X444500Y635000D03*
X469900Y635000D03*
X495300Y635000D03*
X520700Y635000D03*
X546100Y635000D03*
X571500Y635000D03*
X596900Y635000D03*
D11*
X167640Y444500D03*
D12*
X167640Y469900D03*
X167640Y495300D03*
X142240Y444500D03*
X142240Y469900D03*
X142240Y495300D03*
D13*
X497840Y457200D02*
X513080Y457200D01*
X513080Y482600D02*
X497840Y482600D01*
X497840Y508000D02*
X513080Y508000D01*
X513080Y533400D02*
X497840Y533400D01*
X497840Y558800D02*
X513080Y558800D01*
X513080Y584200D02*
X497840Y584200D01*
D14*
X215900Y546100D03*
D15*
X165100Y546100D02*
X154940Y535940D01*
X165100Y546100D02*
X215900Y546100D01*
D14*
X403860Y563880D03*
X363220Y538480D03*
D16*
X421640Y535940D02*
X421640Y558800D01*
X421640Y535940D02*
X414274Y528574D01*
X373126Y528574D02*
X363220Y538480D01*
X373126Y528574D02*
X414274Y528574D01*
X421640Y558800D02*
X416560Y563880D01*
X403860Y563880D01*
D15*
X154940Y457200D02*
X142240Y444500D01*
X154940Y457200D02*
X154940Y535940D01*
D14*
X304800Y599440D03*
X251460Y513080D03*
X314960Y535940D03*
X408940Y462280D03*
X406400Y538480D03*
X459740Y612140D03*
X327660Y518160D03*
X576580Y530860D03*
X622300Y482600D03*
X388620Y561340D03*
X802640Y419100D03*
X746760Y568960D03*
X701040Y538480D03*
X622300Y505460D03*
X574040Y604520D03*
X627380Y408940D03*
X170180Y627380D03*
X208280Y403860D03*
D15*
X182880Y480060D02*
X167640Y495300D01*
X182880Y480060D02*
X182880Y416560D01*
D14*
X182880Y416560D03*
X441960Y538480D03*
D15*
X538480Y635000D02*
X546100Y635000D01*
X506226Y620014D02*
X441960Y555748D01*
X506226Y620014D02*
X523494Y620014D01*
X538480Y635000D01*
X441960Y555748D02*
X441960Y538480D01*
D14*
X403860Y553720D03*
D15*
X365760Y553720D01*
X347980Y535940D01*
D14*
X347980Y535940D03*
X332740Y535940D03*
D15*
X330200Y535940D01*
X317500Y548640D01*
D14*
X317500Y548640D03*
X254000Y581660D03*
D15*
X241300Y568960D01*
X241300Y406400D01*
D14*
X391160Y571500D03*
D15*
X416560Y596900D01*
X474980Y596900D02*
X513080Y635000D01*
X474980Y596900D02*
X416560Y596900D01*
X513080Y635000D02*
X520700Y635000D01*
D14*
X381000Y574040D03*
D15*
X383540Y574040D01*
X414020Y604520D01*
X474980Y604520D01*
X495300Y624840D01*
X495300Y635000D01*
D14*
X383540Y584200D03*
D15*
X411480Y612140D01*
X447040Y612140D01*
X469900Y635000D01*
D14*
X347980Y579120D03*
D15*
X347980Y589280D01*
X393700Y635000D01*
D14*
X370840Y513080D03*
D15*
X347980Y513080D01*
X340360Y520700D01*
X340360Y607060D02*
X368300Y635000D01*
X340360Y607060D02*
X340360Y520700D01*
D14*
X332740Y546100D03*
D15*
X332740Y624840D01*
X342900Y635000D01*
D14*
X358140Y579120D03*
D15*
X414020Y635000D02*
X419100Y635000D01*
X414020Y635000D02*
X358140Y579120D01*
D14*
X383464Y594436D03*
D15*
X408788Y619760D01*
X429260Y619760D01*
X444500Y635000D01*
X274320Y469900D02*
X337820Y406400D01*
D14*
X274320Y574040D03*
D15*
X274320Y469900D01*
X337820Y406400D02*
X342900Y406400D01*
D14*
X289560Y566420D03*
D15*
X353060Y421640D02*
X368300Y406400D01*
X353060Y421640D02*
X330200Y421640D01*
X279400Y472440D01*
X279400Y556260D01*
X289560Y566420D01*
X284480Y520700D02*
X284480Y485140D01*
X284480Y520700D02*
X302260Y538480D01*
D17*
X284480Y485140D03*
D15*
X284480Y474980D01*
X332740Y426720D01*
X364236Y418084D02*
X373140Y418084D01*
X384824Y406400D02*
X393700Y406400D01*
X384824Y406400D02*
X373140Y418084D01*
X364236Y418084D02*
X355600Y426720D01*
X332740Y426720D01*
D14*
X302260Y563880D03*
D15*
X302260Y538480D01*
X410224Y406400D02*
X419100Y406400D01*
X385840Y430784D02*
X336296Y430784D01*
X385840Y430784D02*
X410224Y406400D01*
X303100Y468200D02*
X300990Y466090D01*
D14*
X303100Y468200D03*
D15*
X300990Y466090D02*
X336296Y430784D01*
X461024Y406400D02*
X469900Y406400D01*
X428512Y438912D02*
X345948Y438912D01*
X428512Y438912D02*
X461024Y406400D01*
X345948Y438912D02*
X322580Y462280D01*
X322990Y462690D01*
D14*
X322990Y462690D03*
X335280Y459740D03*
D15*
X335280Y457200D02*
X347980Y444500D01*
X457200Y444500D01*
X495300Y406400D01*
X335280Y457200D02*
X335280Y459740D01*
D14*
X345440Y457200D03*
D15*
X354076Y448564D01*
X511824Y406400D02*
X520700Y406400D01*
X469660Y448564D02*
X354076Y448564D01*
X469660Y448564D02*
X511824Y406400D01*
D14*
X353136Y462356D03*
D15*
X362864Y452628D01*
X474984Y452628D02*
X483366Y444246D01*
X508254Y444246D01*
X546100Y406400D01*
X474984Y452628D02*
X362864Y452628D01*
D14*
X386080Y459740D03*
D15*
X370840Y459740D01*
D14*
X370840Y459740D03*
X391160Y482600D03*
D15*
X584200Y647700D02*
X596900Y635000D01*
X584200Y647700D02*
X566420Y647700D01*
X557784Y639064D01*
X533400Y596900D02*
X492760Y596900D01*
X454660Y558800D01*
X454660Y551180D01*
X454660Y546100D01*
X454660Y518160D01*
X419100Y482600D01*
X391160Y482600D01*
X557784Y621284D02*
X557784Y639064D01*
X557784Y621284D02*
X533400Y596900D01*
D14*
X439420Y523240D03*
D15*
X350520Y523240D01*
D14*
X350520Y523240D03*
X266700Y589280D03*
D15*
X266700Y406400D01*
X435624Y406400D02*
X444500Y406400D01*
X407176Y434848D02*
X341532Y434848D01*
X407176Y434848D02*
X435624Y406400D01*
X341532Y434848D02*
X313260Y463120D01*
D14*
X313260Y465660D03*
D15*
X313260Y463120D01*
D14*
X434340Y464820D03*
D18*
X436880Y464820D02*
X444500Y472440D01*
X480060Y508000D01*
X505460Y508000D01*
D14*
X723900Y482600D03*
D18*
X708660Y467360D02*
X550232Y467360D01*
X509592Y508000D01*
X505460Y508000D01*
D15*
X525780Y528320D01*
X525780Y576580D02*
X571500Y622300D01*
X525780Y576580D02*
X525780Y528320D01*
X571500Y622300D02*
X571500Y635000D01*
D14*
X444500Y472440D03*
D18*
X436880Y464820D02*
X434340Y464820D01*
X708660Y467360D02*
X723900Y482600D01*
D14*
X708660Y619760D03*
D15*
X736600Y619760D01*
D14*
X736600Y619760D03*
M02*
