G04 EAGLE Gerber RS-274X export*
G75*
%MOMM*%
%FSLAX34Y34*%
%LPD*%
%INSolderpaste Top*%
%IPPOS*%
%AMOC8*
5,1,8,0,0,1.08239X$1,22.5*%
G01*
%ADD10R,1.500000X1.300000*%
%ADD11R,1.300000X1.500000*%
%ADD12R,1.400000X0.400000*%
%ADD13R,1.500000X1.800000*%
%ADD14R,0.700000X1.500000*%
%ADD15R,1.100000X1.400000*%
%ADD16R,1.400000X1.100000*%
%ADD17R,1.300000X1.550000*%
%ADD18R,1.270000X0.558800*%
%ADD19R,0.558800X1.270000*%
%ADD20R,0.635000X1.524000*%
%ADD21R,1.100000X1.900000*%
%ADD22R,1.900000X1.100000*%
%ADD23R,1.200000X1.200000*%
%ADD24R,1.300000X1.600000*%
%ADD25R,1.600000X1.300000*%


D10*
X254000Y531520D03*
X254000Y550520D03*
X279400Y531520D03*
X279400Y550520D03*
X408940Y502260D03*
X408940Y483260D03*
X424180Y526440D03*
X424180Y545440D03*
X276860Y502260D03*
X276860Y483260D03*
X248920Y489560D03*
X248920Y470560D03*
D11*
X747420Y439420D03*
X766420Y439420D03*
X689000Y523240D03*
X708000Y523240D03*
X629260Y538480D03*
X610260Y538480D03*
X603860Y563880D03*
X584860Y563880D03*
X606400Y441960D03*
X587400Y441960D03*
D12*
X768020Y520700D03*
X768020Y514200D03*
X768020Y507700D03*
X768020Y527200D03*
X768020Y533700D03*
D13*
X795020Y483860D03*
D14*
X795020Y520700D03*
D13*
X795020Y557540D03*
D15*
X343060Y596900D03*
X363060Y596900D03*
X472280Y525780D03*
X452280Y525780D03*
X472280Y551180D03*
X452280Y551180D03*
D16*
X434340Y502760D03*
X434340Y482760D03*
X746760Y464980D03*
X746760Y484980D03*
D15*
X746920Y604520D03*
X766920Y604520D03*
X688500Y604520D03*
X708500Y604520D03*
D16*
X683260Y546260D03*
X683260Y566260D03*
X657860Y546260D03*
X657860Y566260D03*
D15*
X586900Y467360D03*
X606900Y467360D03*
X586900Y495300D03*
X606900Y495300D03*
D16*
X698500Y424020D03*
X698500Y404020D03*
X662940Y404020D03*
X662940Y424020D03*
X459740Y502760D03*
X459740Y482760D03*
D15*
X538640Y533400D03*
X558640Y533400D03*
X538640Y558800D03*
X558640Y558800D03*
X538640Y584200D03*
X558640Y584200D03*
D16*
X459740Y457040D03*
X459740Y437040D03*
D17*
X145140Y623950D03*
X145140Y544450D03*
X190140Y623950D03*
X190140Y544450D03*
D18*
X299974Y548700D03*
X299974Y540700D03*
X299974Y532700D03*
X299974Y524700D03*
X299974Y516700D03*
X299974Y508700D03*
X299974Y500700D03*
X299974Y492700D03*
D19*
X314900Y477774D03*
X322900Y477774D03*
X330900Y477774D03*
X338900Y477774D03*
X346900Y477774D03*
X354900Y477774D03*
X362900Y477774D03*
X370900Y477774D03*
D18*
X385826Y492700D03*
X385826Y500700D03*
X385826Y508700D03*
X385826Y516700D03*
X385826Y524700D03*
X385826Y532700D03*
X385826Y540700D03*
X385826Y548700D03*
D19*
X370900Y563626D03*
X362900Y563626D03*
X354900Y563626D03*
X346900Y563626D03*
X338900Y563626D03*
X330900Y563626D03*
X322900Y563626D03*
X314900Y563626D03*
D20*
X715010Y501930D03*
X689610Y448030D03*
X727710Y501930D03*
X702310Y501930D03*
X689610Y501930D03*
X702310Y448030D03*
X676910Y448030D03*
X664210Y448030D03*
X664210Y501930D03*
X638810Y448030D03*
X676910Y501930D03*
X651510Y501930D03*
X651510Y448030D03*
X638810Y501930D03*
X715010Y448030D03*
X727710Y448030D03*
D21*
X201860Y516340D03*
X224860Y479340D03*
X224860Y516340D03*
X201860Y479340D03*
D22*
X643340Y608400D03*
X606340Y585400D03*
X643340Y585400D03*
X606340Y608400D03*
D23*
X231140Y566760D03*
X231140Y545760D03*
D24*
X211480Y586740D03*
X230480Y586740D03*
D23*
X256200Y444500D03*
X277200Y444500D03*
D24*
X206400Y441960D03*
X225400Y441960D03*
D23*
X424520Y596900D03*
X403520Y596900D03*
D25*
X447040Y577240D03*
X447040Y596240D03*
D23*
X424520Y576580D03*
X403520Y576580D03*
D25*
X472440Y577240D03*
X472440Y596240D03*
M02*
