G04 EAGLE Gerber RS-274X export*
G75*
%MOMM*%
%FSLAX34Y34*%
%LPD*%
%INSoldermask Top*%
%IPPOS*%
%AMOC8*
5,1,8,0,0,1.08239X$1,22.5*%
G01*
%ADD10R,1.703200X1.503200*%
%ADD11R,1.503200X1.703200*%
%ADD12C,1.981200*%
%ADD13C,1.727200*%
%ADD14P,1.869504X8X112.500000*%
%ADD15R,1.603200X0.603200*%
%ADD16C,1.053200*%
%ADD17R,1.700000X2.000000*%
%ADD18R,1.700000X2.700000*%
%ADD19C,1.727200*%
%ADD20R,1.303200X1.603200*%
%ADD21R,1.603200X1.303200*%
%ADD22R,1.503200X1.753200*%
%ADD23R,1.473200X0.762000*%
%ADD24R,0.762000X1.473200*%
%ADD25R,0.838200X1.727200*%
%ADD26R,1.303200X2.103200*%
%ADD27R,2.103200X1.303200*%
%ADD28R,1.403200X1.403200*%
%ADD29R,1.503200X1.803200*%
%ADD30R,1.803200X1.503200*%
%ADD31C,0.959600*%


D10*
X254000Y531520D03*
X254000Y550520D03*
X279400Y531520D03*
X279400Y550520D03*
X408940Y502260D03*
X408940Y483260D03*
X424180Y526440D03*
X424180Y545440D03*
X276860Y502260D03*
X276860Y483260D03*
X248920Y489560D03*
X248920Y470560D03*
D11*
X747420Y439420D03*
X766420Y439420D03*
X689000Y523240D03*
X708000Y523240D03*
X629260Y538480D03*
X610260Y538480D03*
X603860Y563880D03*
X584860Y563880D03*
X606400Y441960D03*
X587400Y441960D03*
D12*
X241300Y406400D03*
X266700Y406400D03*
X292100Y406400D03*
X317500Y406400D03*
X342900Y406400D03*
X368300Y406400D03*
X393700Y406400D03*
X419100Y406400D03*
X444500Y406400D03*
X469900Y406400D03*
X495300Y406400D03*
X520700Y406400D03*
X546100Y406400D03*
X571500Y406400D03*
X596900Y406400D03*
X241300Y635000D03*
X266700Y635000D03*
X292100Y635000D03*
X317500Y635000D03*
X342900Y635000D03*
X368300Y635000D03*
X393700Y635000D03*
X419100Y635000D03*
X444500Y635000D03*
X469900Y635000D03*
X495300Y635000D03*
X520700Y635000D03*
X546100Y635000D03*
X571500Y635000D03*
X596900Y635000D03*
D13*
X167640Y444500D03*
D14*
X167640Y469900D03*
X167640Y495300D03*
X142240Y444500D03*
X142240Y469900D03*
X142240Y495300D03*
D15*
X768020Y520700D03*
X768020Y514200D03*
X768020Y507700D03*
X768020Y527200D03*
X768020Y533700D03*
D16*
X773020Y501700D03*
X773020Y539700D03*
D17*
X795020Y483860D03*
X795020Y557540D03*
D18*
X795020Y520700D03*
D19*
X513080Y457200D02*
X497840Y457200D01*
X497840Y482600D02*
X513080Y482600D01*
X513080Y508000D02*
X497840Y508000D01*
X497840Y533400D02*
X513080Y533400D01*
X513080Y558800D02*
X497840Y558800D01*
X497840Y584200D02*
X513080Y584200D01*
D20*
X343060Y596900D03*
X363060Y596900D03*
X472280Y525780D03*
X452280Y525780D03*
X472280Y551180D03*
X452280Y551180D03*
D21*
X434340Y502760D03*
X434340Y482760D03*
X746760Y464980D03*
X746760Y484980D03*
D20*
X746920Y604520D03*
X766920Y604520D03*
X688500Y604520D03*
X708500Y604520D03*
D21*
X683260Y546260D03*
X683260Y566260D03*
X657860Y546260D03*
X657860Y566260D03*
D20*
X586900Y467360D03*
X606900Y467360D03*
X586900Y495300D03*
X606900Y495300D03*
D21*
X698500Y424020D03*
X698500Y404020D03*
X662940Y404020D03*
X662940Y424020D03*
X459740Y502760D03*
X459740Y482760D03*
D20*
X538640Y533400D03*
X558640Y533400D03*
X538640Y558800D03*
X558640Y558800D03*
X538640Y584200D03*
X558640Y584200D03*
D21*
X459740Y457040D03*
X459740Y437040D03*
D22*
X145140Y623950D03*
X145140Y544450D03*
X190140Y623950D03*
X190140Y544450D03*
D23*
X299974Y548700D03*
X299974Y540700D03*
X299974Y532700D03*
X299974Y524700D03*
X299974Y516700D03*
X299974Y508700D03*
X299974Y500700D03*
X299974Y492700D03*
D24*
X314900Y477774D03*
X322900Y477774D03*
X330900Y477774D03*
X338900Y477774D03*
X346900Y477774D03*
X354900Y477774D03*
X362900Y477774D03*
X370900Y477774D03*
D23*
X385826Y492700D03*
X385826Y500700D03*
X385826Y508700D03*
X385826Y516700D03*
X385826Y524700D03*
X385826Y532700D03*
X385826Y540700D03*
X385826Y548700D03*
D24*
X370900Y563626D03*
X362900Y563626D03*
X354900Y563626D03*
X346900Y563626D03*
X338900Y563626D03*
X330900Y563626D03*
X322900Y563626D03*
X314900Y563626D03*
D25*
X715010Y501930D03*
X689610Y448030D03*
X727710Y501930D03*
X702310Y501930D03*
X689610Y501930D03*
X702310Y448030D03*
X676910Y448030D03*
X664210Y448030D03*
X664210Y501930D03*
X638810Y448030D03*
X676910Y501930D03*
X651510Y501930D03*
X651510Y448030D03*
X638810Y501930D03*
X715010Y448030D03*
X727710Y448030D03*
D26*
X201860Y516340D03*
X224860Y479340D03*
X224860Y516340D03*
X201860Y479340D03*
D27*
X643340Y608400D03*
X606340Y585400D03*
X643340Y585400D03*
X606340Y608400D03*
D28*
X231140Y566760D03*
X231140Y545760D03*
D29*
X211480Y586740D03*
X230480Y586740D03*
D28*
X256200Y444500D03*
X277200Y444500D03*
D29*
X206400Y441960D03*
X225400Y441960D03*
D28*
X424520Y596900D03*
X403520Y596900D03*
D30*
X447040Y577240D03*
X447040Y596240D03*
D28*
X424520Y576580D03*
X403520Y576580D03*
D30*
X472440Y577240D03*
X472440Y596240D03*
D31*
X215900Y546100D03*
X403860Y563880D03*
X363220Y538480D03*
X304800Y599440D03*
X251460Y513080D03*
X314960Y535940D03*
X408940Y462280D03*
X406400Y538480D03*
X459740Y612140D03*
X327660Y518160D03*
X576580Y530860D03*
X622300Y482600D03*
X388620Y561340D03*
X802640Y419100D03*
X746760Y568960D03*
X701040Y538480D03*
X622300Y505460D03*
X574040Y604520D03*
X627380Y408940D03*
X170180Y627380D03*
X208280Y403860D03*
X182880Y416560D03*
X441960Y538480D03*
X403860Y553720D03*
X347980Y535940D03*
X332740Y535940D03*
X317500Y548640D03*
X254000Y581660D03*
X391160Y571500D03*
X381000Y574040D03*
X383540Y584200D03*
X347980Y579120D03*
X370840Y513080D03*
X332740Y546100D03*
X358140Y579120D03*
X383464Y594436D03*
X274320Y574040D03*
X289560Y566420D03*
X302260Y563880D03*
X303100Y468200D03*
X322990Y462690D03*
X335280Y459740D03*
X345440Y457200D03*
X353136Y462356D03*
X386080Y459740D03*
X370840Y459740D03*
X391160Y482600D03*
X439420Y523240D03*
X350520Y523240D03*
X266700Y589280D03*
X313260Y465660D03*
X434340Y464820D03*
X723900Y482600D03*
X444500Y472440D03*
X708660Y619760D03*
X736600Y619760D03*
M02*
