M48
;GenerationSoftware,Autodesk,EAGLE,9.5.2*%
;CreationDate,2020-04-21T15:52:58Z*%
FMAT,2
ICI,OFF
METRIC,TZ,000.000
T3C0.350
T2C0.850
T1C1.016
%
G90
M71
T1
X59690Y63500
X34290Y40640
X50546Y55880
X50546Y58420
X24130Y40640
X26670Y40640
X29210Y40640
X31750Y40640
X36830Y40640
X39370Y40640
X41910Y40640
X44450Y40640
X46990Y40640
X49530Y40640
X52070Y40640
X54610Y40640
X57150Y40640
X59690Y40640
X24130Y63500
X26670Y63500
X29210Y63500
X31750Y63500
X34290Y63500
X36830Y63500
X39370Y63500
X41910Y63500
X44450Y63500
X46990Y63500
X49530Y63500
X52070Y63500
X54610Y63500
X57150Y63500
X16764Y44450
X16764Y46990
X16764Y49530
X14224Y44450
X14224Y46990
X14224Y49530
X50546Y45720
X50546Y48260
X50546Y50800
X50546Y53340
T2
X77302Y50170
X77302Y53970
T3
X38608Y45974
X37084Y45974
X39116Y48260
X43942Y52324
X35052Y52324
X26670Y58928
X38862Y56134
X43434Y46482
X72390Y48260
X44450Y47244
X70866Y61976
X73660Y61976
X21590Y54610
X40386Y56388
X36322Y53848
X30480Y59944
X25146Y51308
X31496Y53594
X31326Y46566
X40894Y46228
X40640Y53848
X45974Y61214
X32766Y51816
X57658Y53086
X62230Y48260
X80264Y41910
X74676Y56896
X70104Y53848
X62230Y50546
X57404Y60452
X62738Y40894
X17018Y62738
X20828Y40386
X18288Y41656
X44196Y53848
X40386Y55372
X34798Y53594
X33274Y53594
X31750Y54864
X25400Y58166
X39116Y57150
X38100Y57404
X38354Y58420
X30226Y56388
X34798Y57912
X37084Y51308
X33274Y54610
X35814Y57912
X38346Y59444
X27432Y57404
X28956Y56642
X30310Y46820
X32299Y46269
X33528Y45974
X34544Y45720
X35314Y46236
M30